<?xml version="1.0" standalone="no"?>
<!DOCTYPE svg PUBLIC "-//W3C//DTD SVG 20010904//EN"
 "http://www.w3.org/TR/2001/REC-SVG-20010904/DTD/svg10.dtd">
<svg version="1.0" xmlns="http://www.w3.org/2000/svg"
 width="1080.000000pt" height="1080.000000pt" viewBox="0 0 1080.000000 1080.000000"
 preserveAspectRatio="xMidYMid meet">
<metadata>
Created by potrace 1.11, written by Peter Selinger 2001-2013
</metadata>
<g transform="translate(0.000000,1080.000000) scale(0.100000,-0.100000)"
fill="#000000" stroke="none">
<path d="M5273 10463 c8 -13 -17 -35 -29 -25 -4 4 -3 0 3 -8 10 -13 8 -16 -10
-15 -12 0 -27 3 -34 8 -7 5 -10 0 -7 -15 2 -13 2 -17 -2 -10 -8 17 -27 15 -21
-2 6 -16 -32 -46 -58 -46 -10 0 -13 -5 -9 -12 5 -8 2 -9 -10 -5 -10 4 -19 1
-22 -8 -3 -7 -13 -11 -22 -8 -15 4 -15 3 -2 -6 11 -8 18 -7 28 6 6 9 12 12 12
7 0 -20 -49 -56 -75 -56 -14 0 -28 -4 -31 -9 -3 -5 2 -6 11 -3 11 5 14 1 12
-15 -2 -11 -7 -24 -12 -28 -4 -5 -5 -2 -1 5 4 6 2 12 -3 12 -10 0 -16 -21 -12
-43 1 -4 -8 -3 -18 3 -17 9 -19 7 -16 -9 2 -14 -1 -18 -10 -15 -17 7 -39 -32
-31 -54 5 -13 2 -12 -10 3 -15 20 -16 19 -12 -5 3 -23 -19 -37 -32 -19 -3 4
-11 1 -18 -7 -8 -9 -9 -14 -2 -14 6 0 8 -4 5 -10 -3 -5 -1 -10 4 -10 6 0 11
-4 11 -10 0 -12 -22 -9 -33 5 -4 6 -7 -3 -5 -19 2 -17 -2 -31 -9 -33 -7 -3
-13 0 -13 7 0 6 5 8 12 4 7 -5 8 -3 3 6 -6 10 -11 9 -22 -5 -16 -24 -17 -38 0
-29 6 4 3 -3 -8 -15 -11 -13 -27 -20 -37 -18 -10 3 -21 1 -24 -4 -3 -5 -2 -9
3 -8 18 3 33 -2 33 -11 0 -5 -6 -7 -14 -4 -8 3 -17 0 -21 -5 -3 -6 -12 -8 -18
-5 -7 4 -9 4 -5 -1 4 -4 2 -15 -5 -23 -8 -10 -8 -13 -1 -9 7 4 14 0 17 -8 4
-9 1 -12 -9 -8 -10 4 -13 0 -8 -13 6 -17 5 -17 -9 1 -16 20 -16 20 -12 -3 3
-18 0 -22 -10 -18 -8 3 -17 0 -21 -6 -4 -7 -3 -8 4 -4 7 4 12 3 12 -3 0 -5 -4
-11 -9 -13 -6 -1 -11 -15 -13 -30 -2 -15 -8 -31 -13 -35 -4 -4 -6 -3 -3 2 3 6
-1 16 -9 24 -13 12 -14 11 -8 -8 4 -12 2 -21 -4 -21 -6 0 -11 -5 -11 -11 0 -5
4 -8 9 -4 5 3 12 1 15 -4 3 -4 -2 -8 -12 -7 -9 0 -27 -9 -39 -21 -13 -13 -19
-23 -14 -23 5 0 14 7 21 15 7 8 18 15 24 15 6 0 3 -5 -7 -11 -9 -6 -14 -15
-11 -21 4 -7 2 -8 -4 -4 -8 4 -12 0 -12 -11 0 -10 -4 -14 -8 -8 -4 6 -13 11
-20 13 -9 1 -7 -6 5 -25 15 -23 15 -26 2 -15 -14 11 -17 8 -23 -19 -5 -26 -9
-30 -28 -26 -23 6 -23 6 -3 -10 20 -15 20 -15 0 -11 -16 4 -21 0 -23 -16 -1
-17 1 -18 9 -6 9 13 10 13 6 0 -2 -8 -12 -14 -21 -14 -14 2 -15 -1 -4 -13 11
-14 10 -15 -12 -10 -14 4 -19 4 -12 1 6 -3 12 -10 12 -15 0 -6 -5 -7 -11 -3
-7 4 -9 0 -5 -12 7 -23 -8 -49 -22 -40 -6 4 -16 -2 -21 -13 -14 -25 -14 -41
-1 -21 6 9 10 10 10 3 0 -6 -5 -15 -10 -18 -6 -4 -7 -12 -3 -18 4 -7 0 -6 -10
2 -9 7 -14 18 -10 24 4 6 1 7 -6 2 -9 -5 -10 -10 -2 -18 14 -14 14 -30 1 -22
-6 4 -7 -1 -3 -11 5 -13 3 -15 -8 -9 -11 7 -12 6 -2 -7 15 -18 5 -32 -13 -17
-9 8 -11 5 -7 -10 3 -13 1 -21 -6 -21 -7 0 -9 -4 -6 -10 3 -5 2 -10 -4 -10 -6
0 -8 -6 -5 -14 3 -8 0 -17 -7 -22 -7 -4 -10 -3 -5 4 3 6 1 14 -5 18 -8 4 -9 3
-5 -4 4 -7 2 -12 -4 -12 -6 0 -8 -5 -3 -12 10 -17 13 -38 5 -37 -22 3 -30 -3
-27 -21 3 -14 -5 -25 -23 -35 -15 -8 -21 -14 -14 -15 7 0 10 -4 7 -10 -3 -5 0
-10 7 -10 8 0 6 -5 -5 -11 -9 -6 -14 -15 -11 -21 4 -7 2 -8 -5 -4 -9 6 -9 11
0 22 9 11 8 14 -4 14 -11 0 -14 -10 -13 -36 1 -26 -4 -39 -17 -46 -17 -8 -17
-7 -7 12 6 12 10 24 7 26 -2 2 -9 -7 -15 -21 -7 -15 -8 -26 -1 -30 12 -8 2
-25 -14 -25 -7 0 -6 4 3 11 13 9 13 10 0 6 -8 -2 -15 -9 -15 -16 0 -6 -6 -15
-14 -20 -10 -7 -11 -13 -2 -29 12 -22 -2 -41 -15 -21 -5 8 -3 9 7 4 12 -8 12
-6 0 8 -18 23 -20 22 -15 -13 3 -18 1 -30 -6 -30 -6 0 -8 4 -5 10 3 6 -1 7
-10 3 -13 -4 -14 -8 -4 -14 16 -10 20 -37 7 -46 -6 -3 -8 -1 -5 4 4 6 0 13 -8
16 -10 4 -12 1 -8 -10 4 -10 2 -14 -4 -10 -10 6 -13 -2 -16 -52 -2 -24 -5 -28
-20 -20 -9 6 -17 6 -16 2 1 -4 0 -11 -1 -15 -5 -16 -8 -28 -9 -44 -1 -9 -6
-12 -13 -8 -8 5 -7 0 2 -11 9 -11 10 -16 3 -11 -7 4 -21 2 -30 -4 -17 -11 -17
-11 0 -6 9 3 17 1 17 -4 0 -6 -5 -10 -12 -10 -6 0 -9 -3 -5 -6 3 -4 0 -13 -8
-20 -8 -8 -12 -22 -9 -32 5 -16 5 -15 -6 1 -6 9 -8 22 -4 29 4 7 3 8 -4 4 -7
-4 -9 -18 -6 -33 5 -18 3 -24 -4 -19 -8 5 -10 1 -5 -10 4 -12 3 -15 -5 -10
-10 6 -17 -27 -14 -64 0 -3 -9 -7 -20 -7 -12 -1 -26 -7 -32 -14 -8 -8 -5 -10
14 -5 14 3 19 3 12 0 -6 -3 -10 -10 -7 -14 3 -5 -3 -7 -15 -5 -11 2 -23 -1
-26 -7 -4 -6 -3 -8 3 -5 7 4 10 -5 9 -22 0 -16 -4 -27 -8 -25 -5 3 -8 0 -8 -5
0 -6 -5 -11 -12 -11 -6 0 -4 8 6 19 14 15 15 21 4 27 -7 4 -10 4 -6 0 9 -11
-15 -35 -27 -28 -5 3 -4 -1 2 -10 7 -8 9 -19 5 -23 -4 -5 0 -5 8 0 12 7 13 6
2 -6 -11 -12 -14 -12 -23 1 -9 13 -10 13 -8 0 3 -29 -1 -41 -11 -35 -6 4 -9 3
-8 -2 1 -4 -3 -17 -9 -29 -7 -11 -10 -32 -9 -47 3 -21 0 -25 -10 -16 -7 6 -10
18 -7 27 4 14 3 14 -5 3 -7 -9 -7 -21 -2 -32 11 -19 4 -30 -16 -22 -20 7 -17
-7 4 -23 16 -13 16 -14 -2 -7 -13 4 -17 3 -12 -5 3 -6 1 -14 -5 -18 -8 -4 -9
-3 -5 4 4 7 2 12 -3 12 -15 0 -14 -23 2 -39 10 -11 8 -11 -10 -2 -30 15 -41
14 -18 -2 20 -15 5 -34 -17 -21 -7 4 -10 4 -6 -1 4 -4 3 -14 -3 -21 -7 -8 -6
-14 2 -20 8 -5 9 -3 4 6 -5 9 -4 11 3 6 21 -13 13 -28 -10 -20 -20 6 -21 5 -9
-10 12 -14 12 -16 -2 -11 -8 4 -18 1 -23 -6 -4 -7 -3 -10 3 -6 7 4 10 -3 9
-17 -1 -16 -6 -22 -16 -18 -12 5 -13 3 -3 -10 13 -15 8 -28 -11 -28 -6 0 -4 5
4 10 8 5 10 10 5 10 -20 0 -34 -22 -25 -40 5 -9 5 -22 -1 -31 -8 -11 -9 -10
-7 5 2 10 -2 21 -8 23 -6 2 -10 -7 -9 -19 2 -28 -5 -49 -14 -43 -4 2 -8 -2 -8
-10 0 -8 4 -12 9 -9 4 3 8 0 8 -5 0 -6 -7 -11 -16 -11 -14 0 -15 -2 -3 -17 12
-14 12 -16 0 -8 -11 6 -13 4 -8 -8 4 -12 2 -14 -11 -10 -15 6 -15 5 -3 -10 11
-15 10 -18 -13 -27 -14 -5 -26 -12 -26 -16 0 -3 7 -4 15 -1 8 4 17 1 21 -5 5
-7 2 -8 -6 -3 -10 6 -12 4 -6 -10 5 -15 4 -16 -9 -5 -13 11 -14 10 -8 -6 6
-16 5 -17 -9 -6 -13 10 -19 10 -31 -2 -10 -11 -17 -12 -25 -4 -8 8 -9 5 -5
-11 3 -13 1 -21 -6 -21 -7 0 -9 5 -6 10 3 6 1 10 -5 10 -6 0 -8 5 -4 12 4 7 3
8 -5 4 -6 -4 -9 -12 -6 -17 4 -5 -3 -9 -14 -9 -10 0 -22 -6 -24 -12 -3 -7 -6
-3 -6 10 -1 12 -5 22 -11 22 -5 0 -7 -6 -4 -14 3 -8 0 -17 -7 -22 -7 -4 -10
-3 -6 2 3 6 -4 16 -16 24 -21 12 -21 12 -7 -5 14 -17 13 -18 -3 -12 -11 4 -16
3 -12 -3 3 -6 2 -10 -4 -10 -5 0 -11 6 -14 13 -3 9 -8 9 -18 -2 -9 -8 -9 -11
-2 -7 9 5 11 2 7 -8 -5 -14 -8 -14 -21 0 -16 16 -75 11 -81 -7 -2 -5 -8 -9
-14 -9 -6 0 -7 7 -4 16 5 13 4 14 -7 6 -8 -7 -18 -8 -23 -4 -4 4 -2 -1 5 -11
12 -15 12 -17 -2 -11 -9 3 -22 2 -29 -2 -29 -19 -84 -3 -70 20 3 5 0 6 -7 2
-8 -5 -9 -12 -2 -19 6 -8 4 -16 -4 -24 -10 -10 -14 -9 -19 3 -4 10 -2 13 7 8
6 -4 8 -3 4 1 -15 17 -36 14 -30 -3 4 -10 2 -14 -2 -9 -5 4 -17 -1 -28 -10
-11 -10 -17 -13 -13 -6 4 7 -2 16 -13 22 -29 16 -38 13 -15 -3 19 -14 19 -14
-1 -13 -13 1 -19 -3 -17 -12 3 -12 0 -12 -12 -1 -13 10 -19 10 -33 -1 -11 -10
-14 -10 -9 -1 4 6 2 12 -3 12 -6 0 -11 -5 -11 -12 0 -6 -7 -3 -16 8 -8 10 -13
14 -10 8 3 -7 -1 -17 -9 -24 -13 -11 -14 -10 -9 3 6 16 -19 18 -33 2 -4 -4 -2
-5 4 -1 9 5 11 2 7 -8 -5 -12 -9 -13 -19 -3 -7 7 -10 16 -7 21 3 5 0 6 -6 2
-7 -4 -12 -14 -12 -22 0 -8 -5 -12 -10 -9 -6 4 -7 12 -4 18 5 9 4 9 -6 0 -7
-6 -20 -9 -29 -6 -14 4 -14 3 -1 -6 13 -9 11 -11 -7 -11 -12 0 -23 6 -26 13
-3 9 -7 9 -20 -1 -9 -8 -13 -21 -10 -30 4 -14 3 -14 -5 -3 -12 16 -46 25 -36
9 4 -6 -12 -8 -44 -6 -28 3 -51 2 -50 -1 2 -21 -4 -22 -17 -5 -13 16 -14 16
-9 2 7 -21 -6 -24 -25 -5 -10 10 -11 8 -5 -8 7 -17 6 -18 -8 -7 -13 10 -18 10
-24 1 -4 -8 -3 -9 4 -5 8 5 10 1 5 -10 -5 -15 -7 -15 -15 0 -12 21 -29 21 -21
-1 4 -10 2 -14 -4 -10 -6 4 -13 4 -16 0 -2 -5 -2 -3 -1 4 2 6 -3 14 -11 17 -9
3 -12 0 -8 -10 4 -10 0 -12 -13 -7 -10 4 -15 2 -11 -4 3 -5 0 -10 -8 -10 -8 0
-12 4 -10 8 3 4 -2 9 -10 12 -9 4 -12 1 -8 -9 7 -20 -7 -18 -23 4 -10 12 -13
13 -9 2 3 -8 1 -22 -5 -30 -8 -13 -11 -13 -22 -1 -8 9 -9 11 -1 7 6 -3 15 -1
19 5 4 8 3 9 -4 5 -7 -4 -12 -2 -12 4 0 6 -14 -3 -30 -20 -17 -17 -30 -27 -30
-22 0 4 5 13 11 19 8 8 7 13 -2 18 -7 5 -10 4 -5 -3 6 -10 -30 -28 -48 -24 -5
2 -6 -5 -2 -15 5 -16 5 -16 -9 1 -8 10 -12 23 -9 27 3 5 1 9 -4 9 -6 0 -13 -7
-16 -16 -4 -10 -2 -13 6 -8 7 4 8 3 4 -5 -6 -9 -11 -9 -24 1 -12 10 -14 10 -8
1 4 -7 3 -13 -3 -13 -5 0 -12 6 -15 13 -4 6 -5 3 -2 -9 2 -12 -2 -21 -9 -21
-7 0 -10 8 -7 21 5 18 4 18 -10 5 -9 -7 -14 -17 -12 -20 3 -5 -12 -7 -96 -10
-22 -1 -40 -7 -40 -13 0 -6 -5 -4 -10 4 -8 13 -10 13 -10 -1 0 -9 -7 -20 -16
-23 -21 -8 -24 -8 -24 4 0 5 5 9 11 7 6 -1 13 4 15 11 1 7 0 8 -3 2 -3 -8 -9
-7 -19 1 -13 11 -16 9 -18 -18 -1 -7 -6 -12 -11 -10 -6 1 -9 6 -7 12 2 5 0 7
-4 3 -4 -4 -14 -2 -23 5 -14 11 -14 10 -2 -5 12 -16 10 -18 -18 -18 -18 0 -30
-4 -27 -8 3 -5 -1 -9 -9 -9 -8 0 -12 4 -9 8 2 4 0 11 -6 14 -6 4 -10 3 -9 -2
3 -20 -2 -27 -11 -13 -8 13 -10 12 -10 -2 0 -10 -5 -18 -11 -18 -5 0 -8 4 -4
9 3 5 0 13 -6 17 -8 4 -9 3 -5 -4 4 -7 1 -12 -8 -12 -9 0 -16 -5 -16 -11 0 -5
4 -8 8 -5 5 3 9 -1 9 -9 0 -13 -3 -12 -18 1 -10 9 -16 21 -12 27 3 6 1 7 -6 3
-6 -4 -9 -12 -5 -17 4 -7 -8 -8 -32 -5 -26 4 -34 3 -24 -3 8 -5 18 -7 24 -4 5
3 6 1 3 -5 -8 -11 -25 -11 -44 1 -6 4 -17 2 -25 -5 -7 -7 -20 -13 -28 -13 -8
0 -14 -6 -12 -13 1 -8 -2 -11 -8 -7 -6 3 -7 11 -4 17 4 6 2 8 -4 4 -5 -3 -13
0 -16 6 -3 7 -3 2 0 -11 5 -18 3 -22 -7 -15 -20 12 -40 14 -33 3 3 -5 11 -6
17 -3 7 4 8 3 4 -1 -12 -13 -37 -15 -37 -2 0 8 -4 7 -12 -1 -15 -15 -31 -16
-22 0 5 7 3 8 -5 4 -7 -5 -10 -14 -7 -22 3 -7 1 -16 -5 -19 -5 -4 -8 -1 -7 6
2 8 -8 14 -24 14 -27 1 -27 0 -10 -19 16 -19 16 -20 0 -7 -9 7 -29 14 -43 15
-21 3 -23 1 -13 -12 12 -14 10 -14 -12 -2 -21 11 -23 11 -13 -1 9 -11 7 -14
-13 -15 -15 -1 -21 2 -17 10 4 7 1 6 -9 -1 -8 -7 -19 -9 -23 -5 -5 4 -5 1 0
-7 6 -11 3 -13 -13 -9 -14 4 -20 2 -15 -5 4 -7 0 -8 -12 -3 -15 5 -16 4 -6 -8
10 -12 9 -14 -8 -9 -12 3 -18 10 -14 16 3 6 1 7 -5 3 -7 -4 -12 -14 -12 -22 0
-8 -5 -14 -11 -14 -5 0 -8 4 -4 9 3 5 1 13 -5 16 -6 4 -9 1 -8 -7 2 -7 -5 -12
-14 -12 -10 1 -18 -3 -18 -8 0 -6 -7 -4 -17 3 -15 13 -15 12 -3 -11 13 -25 13
-25 -8 -6 -18 15 -24 16 -37 6 -8 -7 -13 -15 -11 -19 2 -3 -3 -13 -12 -21 -14
-13 -15 -12 -9 3 8 21 -11 33 -26 18 -9 -9 -7 -10 8 -5 19 7 19 7 2 -13 -9
-11 -14 -23 -10 -28 5 -4 1 -4 -7 1 -22 12 -52 16 -45 5 3 -6 -3 -8 -15 -6
-11 2 -23 -1 -26 -7 -4 -6 -3 -8 2 -5 6 3 16 1 24 -4 12 -7 11 -8 -5 -6 -11 1
-26 7 -34 11 -10 7 -12 6 -6 -4 6 -10 4 -12 -9 -7 -12 5 -16 2 -14 -10 2 -9
-4 -18 -12 -20 -13 -4 -13 -3 0 6 12 9 11 11 -7 11 -16 0 -21 -4 -17 -15 4
-11 2 -13 -9 -9 -8 3 -18 1 -22 -5 -3 -6 -11 -11 -16 -11 -6 0 -7 5 -3 12 5 7
3 8 -5 4 -9 -6 -8 -13 6 -29 9 -12 11 -16 3 -9 -15 13 -44 17 -36 4 2 -4 -4
-8 -14 -9 -13 -1 -17 3 -13 15 4 14 3 15 -5 2 -7 -9 -8 -18 -1 -26 7 -9 4 -12
-14 -10 -13 2 -33 -5 -45 -15 -23 -18 -31 -35 -10 -23 7 4 8 3 4 -5 -6 -8 -12
-9 -20 -2 -13 11 -26 5 -26 -11 0 -5 6 -6 13 -2 7 4 9 3 4 -2 -5 -5 -18 -9
-29 -9 -12 0 -23 -7 -25 -15 -4 -13 -3 -13 7 0 10 13 11 13 7 0 -2 -8 -13 -14
-25 -14 -19 1 -20 -1 -10 -20 11 -20 10 -20 -7 -6 -17 14 -18 13 -12 -2 3 -10
3 -17 -1 -17 -26 4 -34 -1 -22 -16 11 -13 10 -14 -4 -9 -9 3 -16 11 -16 17 0
6 -3 7 -6 4 -4 -4 1 -19 11 -34 l18 -28 -23 20 c-13 11 -20 14 -16 8 4 -8 2
-13 -5 -13 -6 0 -9 -8 -6 -20 4 -16 2 -18 -13 -10 -20 11 -22 -3 -6 -29 7 -10
6 -12 -4 -6 -10 6 -12 4 -7 -8 4 -12 1 -15 -14 -12 -17 4 -19 2 -8 -11 10 -12
9 -13 -7 -8 -18 5 -18 5 -1 -6 9 -6 23 -8 30 -4 6 4 2 -3 -11 -15 -12 -12 -20
-26 -17 -31 3 -5 1 -11 -5 -15 -6 -4 -7 -11 -4 -17 4 -7 2 -8 -5 -4 -6 4 -8
13 -5 19 4 7 3 8 -1 4 -12 -10 -15 -37 -5 -37 4 0 11 -7 14 -16 5 -13 4 -14
-7 -6 -10 9 -14 8 -14 -3 0 -8 5 -15 10 -15 5 0 4 -7 -3 -15 -10 -12 -10 -18
1 -32 10 -11 10 -14 1 -9 -6 4 -12 3 -12 -3 0 -5 6 -12 13 -14 9 -4 9 -6 0 -6
-7 -1 -13 -6 -13 -12 0 -5 5 -7 10 -4 6 3 10 1 10 -4 0 -6 -6 -11 -12 -11 -8
0 -9 -3 -3 -8 6 -4 17 -16 25 -26 14 -18 13 -19 -2 -13 -13 4 -15 2 -11 -11 6
-15 5 -16 -12 -2 -17 14 -17 14 -5 -7 13 -20 15 -20 27 -5 12 15 12 15 6 -2
-4 -13 -3 -17 5 -12 8 5 10 2 6 -8 -3 -9 -11 -13 -17 -9 -6 3 -7 1 -3 -6 6 -9
11 -9 21 -1 11 9 12 7 8 -9 -3 -12 -10 -18 -16 -14 -6 4 -7 1 -3 -6 5 -7 15
-10 23 -6 13 4 14 3 3 -10 -11 -13 -10 -14 6 -8 17 6 18 5 4 -12 -12 -15 -12
-17 -1 -10 11 6 13 4 8 -9 -5 -14 -3 -17 8 -12 8 3 14 2 14 -2 -4 -23 2 -42
12 -36 7 4 9 -2 7 -17 -2 -15 2 -23 10 -21 6 1 12 -5 12 -13 0 -9 9 -15 22
-15 21 0 21 0 2 -15 -16 -13 -16 -14 -1 -9 9 3 17 1 17 -5 0 -6 -4 -11 -10
-11 -5 0 -10 -5 -10 -11 0 -8 4 -8 14 0 21 18 58 -7 50 -33 -5 -14 -3 -16 7
-10 12 6 12 5 0 -9 -16 -20 -1 -23 18 -4 11 10 11 8 1 -13 -13 -24 -12 -24 5
-10 17 14 17 13 10 -10 -7 -24 -7 -24 12 -7 16 14 20 14 20 2 0 -8 -4 -12 -9
-9 -4 3 -8 1 -8 -5 0 -5 9 -13 21 -16 17 -6 18 -9 7 -23 -10 -12 -10 -14 -1
-8 8 4 13 2 13 -4 0 -6 5 -8 10 -5 6 3 10 -3 10 -13 0 -11 7 -26 17 -33 15
-13 15 -12 4 8 -10 19 -9 22 4 17 8 -3 13 -10 10 -14 -3 -5 1 -15 9 -23 8 -8
12 -18 8 -21 -3 -4 0 -5 8 -1 9 3 21 -4 29 -17 13 -21 13 -22 -2 -10 -9 8 -22
12 -29 9 -8 -4 -7 -6 5 -6 9 -1 17 -5 17 -11 0 -5 9 -10 20 -10 11 0 20 -7 20
-16 0 -9 5 -12 13 -8 7 5 6 0 -3 -11 -8 -10 -10 -16 -5 -13 6 4 17 3 25 -3 12
-7 11 -9 -5 -9 -14 -1 -10 -5 14 -15 18 -8 38 -12 44 -8 6 4 7 1 3 -6 -5 -7
-14 -10 -22 -7 -7 3 -16 1 -19 -5 -4 -5 -1 -8 7 -7 7 2 12 -3 10 -11 -2 -11 0
-12 10 -4 9 8 18 8 31 -2 14 -10 15 -14 5 -18 -10 -4 -10 -6 0 -6 6 -1 12 -8
12 -17 0 -12 6 -15 23 -11 l22 6 -22 -19 -23 -18 35 3 c19 2 35 -1 35 -6 0 -6
-10 -8 -22 -5 -13 3 -17 3 -10 0 6 -3 9 -11 6 -16 -4 -7 -2 -8 4 -4 11 6 16
-6 13 -27 0 -4 5 -6 11 -5 7 2 12 -2 11 -9 -2 -7 4 -10 12 -7 10 4 13 0 11
-13 -3 -13 2 -19 16 -20 20 -2 20 -1 2 13 -18 14 -18 15 2 5 12 -6 25 -7 30
-3 5 4 0 -3 -10 -16 -11 -12 -16 -25 -13 -29 4 -3 7 -1 7 6 0 7 5 9 10 6 6 -4
7 -12 3 -18 -4 -7 2 -5 12 3 15 12 17 12 10 1 -6 -11 -4 -13 8 -8 11 4 14 2
10 -8 -3 -8 -10 -12 -17 -8 -6 3 -5 0 2 -8 7 -8 18 -14 25 -14 7 -1 11 -6 10
-13 -2 -7 4 -9 15 -5 15 6 15 5 3 -11 -8 -9 -10 -16 -5 -15 19 3 34 -1 34 -12
0 -5 -5 -7 -12 -3 -7 4 -8 3 -4 -4 4 -6 13 -9 21 -5 15 5 21 -12 8 -20 -5 -2
-2 -2 5 -1 6 2 12 -1 12 -6 0 -6 5 -10 11 -10 5 0 7 5 4 10 -3 6 -1 10 4 10
15 0 14 -13 -1 -29 -11 -11 -10 -13 3 -8 9 3 22 1 30 -5 11 -8 10 -9 -3 -4
-10 3 -18 1 -18 -4 0 -6 9 -10 20 -10 11 0 20 -4 20 -10 0 -5 -6 -10 -12 -10
-9 0 -8 -3 2 -10 9 -5 19 -5 27 2 8 6 16 8 20 4 3 -3 2 -6 -4 -6 -6 0 -14 -7
-17 -16 -6 -14 -4 -15 9 -4 13 11 16 11 13 -1 -2 -8 -7 -18 -13 -22 -5 -5 0
-5 12 -2 18 5 22 3 17 -9 -5 -12 -2 -15 10 -10 9 3 16 1 16 -5 0 -6 -5 -11
-12 -11 -6 0 -8 -3 -5 -6 4 -4 14 -1 22 6 9 7 15 9 14 4 -4 -21 2 -35 11 -29
5 3 10 -3 10 -15 0 -12 5 -18 10 -15 6 4 7 11 4 17 -4 7 -2 8 4 4 6 -4 9 -13
6 -20 -3 -8 0 -17 7 -22 8 -5 10 -3 4 7 -8 12 -6 12 8 0 12 -10 14 -17 7 -26
-8 -9 -6 -14 5 -19 10 -3 13 -11 9 -18 -5 -10 -4 -10 7 0 12 11 12 14 -1 22
-9 6 -10 10 -3 10 6 0 15 -6 20 -12 8 -14 9 -18 12 -45 2 -15 4 -14 11 5 14
33 20 27 10 -9 -8 -26 -7 -29 5 -19 12 10 15 10 15 0 0 -7 8 -10 18 -8 12 4
18 -1 18 -13 0 -12 -4 -15 -10 -9 -13 13 -26 13 -26 0 0 -6 6 -9 13 -8 7 2 11
-5 9 -16 -3 -18 -2 -18 13 -2 18 17 26 20 24 9 -4 -26 3 -43 19 -43 21 0 66
-43 55 -53 -3 -4 3 -18 15 -30 12 -13 19 -27 15 -32 -5 -4 -2 -5 5 -1 11 6 9
13 -8 31 -17 18 -19 25 -8 31 7 4 10 3 5 -1 -4 -5 2 -18 13 -30 12 -12 20 -26
19 -31 -1 -5 -1 -16 0 -24 1 -12 4 -11 12 3 6 9 15 15 20 12 5 -4 7 -11 4 -16
-4 -5 -3 -19 1 -31 6 -19 7 -19 16 -4 13 24 25 12 22 -23 -2 -28 0 -29 23 -20
31 11 42 11 24 0 -25 -16 -21 -37 7 -39 15 -1 33 -9 42 -18 8 -9 9 -14 3 -10
-7 4 -13 2 -13 -3 0 -6 7 -11 15 -11 13 0 21 -26 16 -53 -1 -5 3 -6 8 -2 6 3
8 12 4 20 -3 8 0 15 6 15 6 0 10 -3 10 -7 -4 -26 2 -35 15 -24 11 9 16 9 22 0
4 -7 3 -9 -3 -6 -6 4 -14 0 -17 -9 -9 -24 -7 -31 4 -14 8 13 10 12 10 -2 0
-11 7 -18 18 -18 15 0 15 2 2 11 -13 9 -13 10 0 6 8 -2 14 -11 12 -21 -2 -9 2
-16 8 -16 6 0 8 -4 5 -10 -3 -5 1 -10 10 -10 9 0 14 4 10 9 -3 5 -1 12 4 16 6
3 8 -5 5 -20 -2 -14 0 -25 6 -25 5 0 10 5 10 12 0 6 3 8 6 5 4 -4 2 -13 -4
-20 -9 -10 -8 -14 3 -15 8 -1 22 -3 30 -4 8 -1 12 -5 9 -10 -3 -5 -10 -5 -16
-2 -7 4 -8 2 -4 -4 4 -6 14 -8 23 -5 10 4 14 2 10 -5 -7 -11 42 -52 62 -52 10
0 12 -5 15 -37 1 -7 6 -13 11 -12 6 0 9 7 9 14 -1 8 2 12 7 9 5 -3 9 -16 9
-30 0 -15 6 -24 16 -24 9 0 12 5 8 12 -4 7 -3 8 4 4 6 -4 9 -13 6 -21 -5 -13
51 -52 68 -47 4 1 5 -4 2 -12 -3 -8 4 -16 17 -19 20 -5 21 -8 8 -24 -7 -10
-10 -15 -5 -11 9 7 36 -13 30 -23 -2 -3 9 -4 24 -3 15 2 21 1 15 -2 -20 -9
-15 -23 6 -19 11 2 26 -4 33 -13 7 -9 8 -13 3 -10 -6 4 -17 -2 -24 -14 -7 -11
-9 -18 -4 -15 5 3 15 2 23 -4 13 -7 13 -9 0 -9 -8 -1 -4 -6 10 -11 13 -6 20
-13 15 -17 -6 -4 -12 -14 -13 -22 -10 -41 -10 -50 -2 -45 4 3 7 -3 5 -12 -1
-10 3 -24 9 -32 8 -11 8 -13 -2 -7 -6 4 -12 2 -12 -3 0 -6 -8 -11 -17 -12 -14
0 -13 -2 5 -9 26 -11 30 -23 4 -13 -14 6 -15 4 -4 -9 10 -12 10 -17 -1 -27 -8
-6 -18 -7 -22 -3 -5 4 -5 1 -1 -6 4 -7 11 -10 15 -8 4 3 8 -4 8 -15 1 -10 -3
-19 -8 -19 -6 0 -7 6 -3 13 4 6 3 8 -1 4 -12 -10 -16 -39 -5 -32 4 3 6 -5 2
-17 -3 -14 -1 -19 6 -14 6 3 13 2 17 -3 3 -6 -3 -8 -14 -6 -21 4 -37 -20 -20
-30 15 -10 -1 -27 -18 -20 -13 4 -14 3 -4 -9 7 -8 20 -12 29 -10 15 5 14 4 -1
-6 -9 -6 -14 -16 -11 -22 4 -7 2 -8 -4 -4 -15 9 -15 -7 -1 -21 9 -9 6 -10 -12
-6 -24 5 -24 5 -4 -11 11 -10 14 -14 6 -10 -11 5 -13 3 -7 -11 5 -15 4 -16 -8
-6 -12 10 -13 9 -9 -8 3 -13 1 -21 -8 -21 -7 0 -9 -3 -6 -6 4 -4 13 -1 21 5
11 9 16 9 22 0 4 -7 3 -9 -2 -6 -5 3 -17 -8 -27 -24 -9 -17 -12 -27 -7 -24 6
3 10 1 10 -4 0 -6 -7 -11 -15 -11 -8 0 -15 -4 -15 -10 0 -5 8 -7 17 -4 15 5
15 3 -1 -10 -20 -16 -20 -16 0 -17 18 0 18 -1 -1 -9 -11 -5 -16 -9 -11 -9 5
-1 3 -8 -4 -16 -6 -8 -9 -19 -5 -25 4 -6 2 -16 -4 -23 -6 -8 -6 -18 -1 -27 16
-25 11 -33 -7 -13 -10 10 -14 13 -10 7 5 -8 1 -17 -10 -24 -15 -9 -15 -11 -1
-6 16 5 34 -21 23 -32 -3 -3 -5 0 -5 6 0 7 -5 12 -11 12 -5 0 -7 -5 -4 -11 4
-5 -1 -20 -12 -31 -18 -21 -18 -21 4 -9 36 18 39 13 6 -12 -27 -20 -29 -24
-15 -33 13 -9 13 -12 2 -19 -9 -6 -11 -4 -5 6 5 8 4 11 -1 6 -5 -5 -10 -13
-10 -18 -1 -5 -3 -10 -4 -11 -7 -8 -6 -47 1 -42 5 3 9 0 9 -5 0 -6 -5 -11 -10
-11 -7 0 -7 -7 1 -21 8 -15 8 -19 0 -15 -6 4 -11 0 -11 -9 0 -9 -4 -14 -9 -10
-5 3 -13 0 -17 -6 -4 -8 -3 -9 4 -5 7 4 12 2 12 -4 0 -6 4 -9 9 -6 17 11 5
-26 -12 -39 -24 -17 -21 -27 6 -20 21 6 21 5 -2 -8 -18 -11 -20 -16 -10 -20
10 -4 9 -6 -4 -6 -15 -1 -16 -5 -7 -21 6 -12 7 -20 1 -20 -5 0 -11 6 -14 13
-3 6 -4 2 -4 -11 1 -14 6 -21 15 -17 8 3 10 0 6 -7 -5 -8 -2 -9 10 -5 10 4 15
3 11 -3 -3 -6 -18 -7 -33 -4 -26 6 -26 6 -7 -9 16 -13 18 -18 8 -28 -7 -7 -13
-17 -13 -22 0 -4 6 -5 13 -1 9 6 9 5 0 -8 -7 -8 -10 -18 -6 -22 4 -4 1 -4 -8
-1 -11 4 -15 -2 -15 -29 0 -19 4 -32 8 -30 4 3 8 0 8 -5 0 -6 -7 -11 -15 -11
-8 0 -15 -4 -15 -10 0 -5 7 -7 15 -4 11 5 13 2 9 -10 -3 -9 -11 -13 -18 -9 -6
4 -5 -1 3 -10 7 -9 10 -17 6 -17 -4 0 -2 -6 4 -13 8 -10 7 -14 -4 -14 -8 0
-11 5 -8 10 3 6 1 7 -5 3 -6 -4 -9 -13 -6 -21 4 -8 9 -13 13 -10 4 2 8 -2 8
-9 0 -8 -5 -12 -12 -10 -6 3 -11 -5 -12 -16 -1 -13 2 -18 10 -14 7 4 9 4 5 -1
-4 -4 -2 -15 5 -23 10 -13 9 -14 -10 -4 -14 8 -24 9 -28 2 -6 -10 -5 -11 14
-14 5 0 13 -5 18 -10 5 -5 2 -6 -6 -1 -9 5 -12 3 -9 -6 3 -8 -2 -20 -11 -27
-14 -11 -13 -12 9 -7 17 4 21 3 12 -3 -15 -10 -15 -21 0 -39 7 -9 7 -13 -1
-13 -10 0 -15 14 -12 33 1 5 -3 5 -9 2 -6 -4 -9 -10 -6 -13 3 -3 0 -12 -7 -20
-6 -9 -7 -13 -2 -10 6 4 17 3 25 -3 13 -7 12 -9 -2 -9 -10 0 -18 -5 -18 -11 0
-6 8 -8 18 -5 14 5 14 4 -2 -9 -11 -8 -25 -15 -30 -15 -6 0 -4 -5 4 -10 13 -9
13 -11 0 -21 -12 -8 -9 -9 10 -4 22 5 23 4 8 -7 -12 -11 -14 -18 -6 -33 9 -15
8 -17 -8 -11 -10 4 -15 4 -11 0 4 -4 2 -13 -5 -21 -9 -11 -8 -13 2 -11 7 2 16
-9 20 -24 6 -19 5 -25 -4 -22 -7 3 -13 -2 -13 -10 0 -8 5 -12 10 -9 6 4 8 0 4
-10 -4 -10 0 -20 11 -26 24 -14 5 -13 -21 1 -19 10 -20 9 -10 -4 10 -11 10
-17 0 -27 -9 -10 -8 -11 5 -6 18 7 19 -8 2 -49 -5 -12 -4 -17 3 -13 5 3 10 -1
10 -9 0 -8 -5 -13 -12 -11 -7 3 -9 -7 -7 -31 3 -20 1 -32 -5 -29 -5 3 -10 0
-10 -8 0 -8 3 -14 6 -13 27 3 38 -30 16 -49 -4 -5 -5 -1 0 7 5 8 4 12 0 7 -11
-9 -13 -107 -3 -100 5 2 8 0 8 -6 0 -5 -8 -12 -18 -14 -16 -4 -16 -5 1 -6 10
0 15 -6 12 -11 -4 -6 -12 -7 -18 -3 -9 5 -9 3 -1 -8 6 -8 14 -22 18 -33 5 -14
2 -17 -9 -12 -8 3 -15 1 -15 -4 0 -6 6 -10 13 -10 8 0 11 -14 8 -46 -2 -29 1
-44 7 -41 16 11 8 -31 -11 -54 -18 -20 -18 -21 1 -15 12 4 19 1 19 -8 0 -9 -4
-13 -7 -11 -4 3 -7 -6 -7 -20 0 -14 6 -26 16 -28 12 -4 11 -5 -4 -6 -17 -1
-18 -3 -5 -11 12 -8 12 -10 1 -10 -9 0 -6 -7 9 -20 13 -11 19 -20 14 -20 -6 0
-14 4 -20 10 -11 11 -13 -28 -2 -45 4 -6 3 -17 -3 -25 -13 -22 -11 -32 5 -18
8 7 12 16 9 21 -2 4 1 7 6 7 14 0 14 -17 1 -25 -6 -3 -10 -11 -10 -16 0 -6 4
-8 8 -5 4 2 9 -5 9 -17 2 -17 0 -18 -7 -7 -6 10 -8 1 -7 -27 1 -23 5 -39 9
-37 5 3 8 0 8 -5 0 -6 -4 -11 -9 -11 -5 0 -4 -11 2 -24 7 -13 16 -22 22 -18 5
3 2 -4 -8 -15 -18 -20 -17 -21 10 -43 15 -13 20 -20 11 -17 -12 4 -16 1 -13
-14 2 -10 -2 -19 -8 -19 -7 0 -6 -4 3 -10 8 -5 20 -10 25 -10 6 0 3 5 -5 10
-9 6 -10 10 -3 10 18 0 25 -18 11 -27 -7 -4 -14 -17 -15 -28 -1 -17 1 -17 18
5 19 23 19 23 9 2 -6 -12 -8 -27 -5 -32 3 -6 0 -10 -7 -10 -10 0 -9 -3 2 -9 8
-6 17 -8 21 -5 4 2 5 -5 2 -16 -3 -11 -10 -17 -16 -13 -6 3 -7 1 -3 -5 4 -6
14 -8 24 -5 9 3 14 3 10 -1 -4 -5 -3 -19 2 -32 8 -19 6 -22 -8 -17 -14 6 -15
5 -2 -9 8 -9 20 -13 25 -10 6 3 4 -2 -4 -11 -14 -18 -2 -24 15 -7 7 7 11 6 11
-4 0 -8 -4 -13 -9 -10 -4 3 -7 -6 -6 -20 1 -13 6 -22 10 -20 5 3 5 10 2 16 -4
7 -2 8 4 4 9 -5 9 -13 2 -26 -9 -16 -7 -18 11 -15 16 3 18 1 10 -8 -6 -8 -6
-18 -1 -27 6 -8 10 -10 10 -5 0 6 5 2 11 -8 6 -9 15 -15 20 -12 5 4 6 11 3 17
-5 7 -2 8 5 3 9 -5 10 -10 2 -18 -15 -15 -14 -30 2 -24 8 3 20 1 28 -5 11 -8
10 -9 -4 -4 -11 3 -17 0 -17 -10 0 -8 4 -12 10 -9 5 3 10 0 10 -7 1 -8 6 -6
15 6 13 17 14 17 21 -10 4 -16 11 -35 17 -41 11 -14 31 -7 21 8 -3 5 -10 7
-15 4 -5 -4 -9 -2 -9 3 0 6 7 12 15 16 8 3 14 0 12 -7 -1 -7 3 -11 10 -10 7 2
10 -4 6 -13 -3 -9 0 -14 8 -12 8 2 13 -3 11 -11 -3 -12 0 -12 12 -1 18 14 22
25 6 15 -6 -3 -10 -1 -10 5 0 7 6 10 13 7 6 -2 11 -13 9 -23 -2 -16 1 -15 18
6 11 14 18 18 15 9 -5 -13 0 -16 24 -14 17 1 28 -1 25 -6 -3 -5 -10 -7 -15 -4
-15 10 -10 -2 8 -16 9 -8 14 -9 10 -3 -4 7 2 14 14 17 15 4 18 2 10 -6 -7 -9
0 -12 30 -11 21 0 42 4 46 9 5 4 2 5 -4 1 -9 -5 -11 -2 -6 9 4 12 8 13 13 5 5
-7 13 -9 20 -5 9 5 11 4 6 -3 -10 -16 7 -15 22 0 10 10 15 10 22 -2 7 -11 10
-11 10 -2 0 7 5 10 11 6 6 -3 15 0 20 7 6 9 9 10 9 2 0 -10 37 -11 60 -3 3 2
9 2 13 1 5 -1 6 3 3 8 -4 5 -15 8 -26 6 -11 -2 -20 0 -20 4 0 5 14 8 30 7 28
-1 35 -7 31 -29 -1 -5 3 -6 8 -3 5 4 8 15 6 26 -2 11 1 23 7 26 7 4 8 2 4 -4
-4 -7 -2 -12 4 -12 6 0 8 -5 4 -12 -4 -7 -3 -8 4 -4 7 4 12 13 12 20 0 7 7 13
15 13 8 0 15 -4 15 -9 0 -4 5 -8 11 -8 5 0 7 5 4 10 -3 6 1 10 10 10 10 0 13
5 9 12 -4 7 -3 8 4 4 6 -4 8 -14 5 -24 -4 -10 7 -4 24 14 31 30 63 41 63 20 1
-6 8 0 16 14 8 14 13 17 10 8 -3 -10 -1 -20 3 -23 5 -2 11 4 14 15 3 11 11 20
19 20 10 0 9 -3 -2 -10 -12 -7 -10 -9 7 -7 12 0 19 5 17 9 -5 7 3 10 24 7 4
-1 6 -6 4 -12 -2 -7 2 -6 11 1 8 7 18 8 22 4 5 -4 5 -1 1 6 -4 7 -11 10 -15 8
-4 -3 -8 1 -8 9 0 10 6 11 24 4 16 -6 22 -6 18 1 -4 7 3 9 19 6 29 -5 82 37
70 56 -4 7 -2 8 5 4 7 -4 9 -17 6 -29 -5 -16 -4 -18 3 -8 6 8 15 10 23 5 12
-6 11 -5 0 9 -12 15 -12 17 4 11 15 -6 16 -4 6 14 -7 12 -9 22 -7 22 3 0 12
-12 20 -27 8 -16 15 -22 16 -15 0 7 4 10 10 7 6 -3 7 1 4 9 -7 19 7 21 23 5 9
-9 10 -7 6 10 -3 13 -1 21 6 21 7 0 10 -4 6 -9 -3 -5 -1 -13 5 -16 6 -4 9 -1
8 7 -2 7 5 12 15 12 15 -2 20 6 19 26 0 3 11 6 24 6 13 1 22 -2 19 -6 -3 -5 0
-12 6 -16 8 -4 9 -3 5 4 -4 7 -3 12 3 12 6 0 7 7 4 17 -5 12 -3 14 8 7 24 -15
39 -13 52 7 13 21 28 26 23 7 -1 -7 -1 -10 1 -5 3 4 9 4 15 1 5 -4 4 4 -3 17
-11 22 -11 23 4 10 15 -12 17 -11 17 3 0 9 5 16 11 16 5 0 8 -4 4 -9 -3 -5 -1
-13 5 -16 6 -4 9 -1 8 6 -2 6 3 14 11 17 9 3 11 0 6 -8 -6 -9 -4 -11 4 -6 7 5
10 14 7 22 -3 8 -1 14 4 14 6 0 10 -5 10 -11 0 -5 4 -8 9 -4 6 3 8 14 6 24 -2
10 3 18 11 18 10 0 11 -4 3 -13 -8 -10 -3 -12 20 -10 17 1 34 6 38 11 4 4 2 5
-4 1 -8 -4 -13 -2 -13 6 0 10 -3 9 -11 -2 -9 -13 -10 -13 -6 0 2 8 13 16 25
16 40 3 43 4 36 17 -5 7 0 6 11 -3 11 -9 16 -10 11 -2 -4 7 -2 12 8 12 8 0 17
-6 20 -12 3 -7 4 -2 3 11 -1 14 4 26 13 28 13 4 13 3 0 -6 -12 -9 -11 -11 7
-11 17 0 21 4 16 17 -5 12 -3 14 8 7 18 -11 40 -14 35 -5 -3 4 7 16 21 27 15
10 35 28 45 39 15 16 18 16 13 3 -5 -13 -2 -17 14 -15 16 1 18 4 8 16 -10 12
-9 13 9 3 17 -9 24 -9 34 3 7 8 16 13 20 10 11 -7 33 22 25 34 -3 7 0 8 9 5 9
-3 14 -10 11 -14 -3 -5 -1 -11 4 -14 11 -7 9 13 -2 31 -6 9 -3 11 9 6 11 -4
15 -3 10 5 -4 7 2 9 20 6 14 -3 23 -1 20 4 -3 5 13 8 35 6 43 -3 48 4 9 11
-25 5 -43 18 -20 15 37 -5 61 0 54 13 -5 7 0 6 11 -3 12 -9 16 -10 11 -2 -6 9
-1 12 17 8 16 -3 24 1 24 10 0 8 -4 10 -11 5 -6 -5 -20 -5 -31 0 -19 9 -19 9
2 5 12 -2 30 4 42 16 12 10 21 14 21 8 0 -17 18 -11 41 13 12 12 18 16 14 9
-6 -11 -3 -12 11 -4 11 5 27 8 37 7 9 -2 15 1 11 6 -3 5 -10 7 -15 4 -5 -4 -9
-1 -9 4 0 6 9 11 19 11 11 0 23 5 26 10 3 6 11 10 16 10 6 0 8 -4 4 -9 -3 -5
0 -13 6 -17 7 -4 9 -3 6 3 -6 10 18 38 32 38 3 0 5 9 3 19 -2 18 -1 18 17 -2
15 -18 20 -20 24 -8 4 9 1 18 -5 22 -7 5 -8 2 -3 -6 5 -9 4 -11 -4 -6 -6 4 -9
12 -5 17 3 5 9 7 14 4 4 -3 11 1 13 7 4 9 6 8 6 -3 1 -9 8 -16 16 -16 10 0 12
4 5 12 -5 6 -5 17 -1 24 6 10 10 8 16 -6 6 -16 8 -16 16 5 7 18 12 21 27 13
14 -7 19 -6 19 4 0 8 -5 11 -10 8 -6 -3 -7 -1 -4 4 4 6 18 11 32 12 55 4 62 6
62 18 0 9 -6 9 -21 2 -20 -10 -20 -10 -2 5 18 14 22 14 40 -2 20 -16 20 -16 6
2 -14 18 -13 19 3 13 11 -4 16 -3 12 3 -4 6 4 9 17 7 17 -1 22 2 20 16 -3 18
17 20 30 2 6 -8 12 12 10 35 0 3 8 6 18 6 16 0 17 -3 7 -16 -10 -13 -10 -13 4
-3 9 7 19 10 23 6 4 -4 4 1 0 11 -6 15 -4 17 6 11 10 -6 12 -4 7 8 -4 12 -2
14 10 10 12 -5 14 -2 9 8 -4 8 -1 6 8 -5 14 -18 16 -18 41 2 14 11 21 23 16
26 -6 4 -15 -3 -21 -15 -7 -11 -14 -18 -17 -15 -8 8 28 47 38 41 4 -3 13 3 19
12 9 15 10 15 4 -6 -4 -16 -3 -21 5 -17 6 4 11 15 11 24 0 13 2 13 15 -4 14
-18 14 -18 10 3 -5 27 12 40 28 24 9 -9 7 -10 -8 -5 -21 8 -21 6 9 -16 13 -10
17 -10 12 -2 -4 7 -1 15 8 18 9 3 14 10 11 14 -3 5 -1 11 5 15 6 4 7 11 4 17
-4 7 -2 8 4 4 6 -4 9 -12 6 -20 -3 -7 2 -13 10 -13 8 0 13 4 10 9 -5 8 7 11
36 9 10 0 11 1 3 5 -19 8 -15 24 4 17 9 -4 14 -2 11 3 -5 7 9 28 26 37 2 1 14
-7 27 -18 13 -11 21 -16 17 -11 -4 5 -3 15 4 23 8 11 7 12 -5 8 -8 -4 -17 -2
-21 3 -6 10 24 9 41 -1 6 -4 14 -3 18 3 4 6 11 8 16 5 5 -4 13 4 18 17 6 14
10 17 11 8 1 -10 4 -9 10 5 8 18 9 18 9 2 1 -10 6 -15 11 -12 6 4 7 11 4 17
-4 6 2 6 15 -1 11 -7 21 -17 21 -23 0 -5 9 -8 19 -5 15 4 19 0 16 -15 -3 -16
-1 -17 10 -8 9 7 15 8 20 0 3 -5 12 -10 18 -10 7 0 6 4 -3 10 -9 6 -10 10 -3
10 7 0 20 -8 30 -18 20 -21 49 -23 45 -3 -1 7 2 10 7 7 13 -8 6 -42 -9 -38 -6
1 -9 -2 -5 -8 4 -7 11 -8 18 -2 7 6 24 10 39 10 23 0 25 -2 12 -15 -19 -19
-18 -29 1 -13 10 9 15 9 15 1 0 -6 9 -11 21 -11 11 0 18 -4 15 -8 -2 -4 4 -9
15 -10 10 -1 28 -3 39 -4 11 -1 22 -10 25 -19 4 -11 13 -16 26 -14 11 2 17 0
14 -4 -3 -5 2 -12 11 -15 22 -9 26 -8 18 6 -4 7 -3 8 4 4 7 -4 12 -13 12 -21
0 -8 9 -20 20 -28 11 -8 17 -18 13 -23 -4 -5 -1 -3 7 4 8 6 18 12 23 12 4 0 5
-6 1 -12 -4 -7 3 -4 16 7 13 11 20 14 16 7 -4 -7 -1 -15 8 -18 9 -3 16 -11 16
-17 0 -5 -8 -3 -18 6 -15 14 -19 14 -19 3 0 -8 3 -15 6 -14 3 0 11 -1 16 -2 6
-1 15 -3 20 -4 54 -10 70 -22 66 -48 0 -4 6 -5 15 -1 13 5 13 7 2 14 -9 6 -9
9 -1 9 6 0 15 -5 18 -10 5 -8 12 -7 23 2 16 12 16 11 2 -6 -14 -18 -13 -19 3
-13 10 4 16 3 13 -2 -3 -5 2 -15 11 -22 10 -8 14 -9 10 -2 -4 6 -2 15 4 19 8
5 9 3 4 -6 -6 -9 -4 -12 7 -8 8 4 15 0 15 -8 0 -7 -5 -10 -10 -7 -6 3 -7 1 -3
-5 4 -6 14 -8 23 -5 12 5 14 3 8 -8 -6 -11 -5 -11 5 -2 10 9 17 7 32 -13 11
-13 23 -22 28 -19 5 3 12 1 15 -5 5 -8 12 -7 23 2 13 11 14 11 7 -1 -6 -10 -4
-13 6 -9 8 3 23 0 33 -8 11 -7 23 -11 29 -7 6 3 7 2 4 -3 -3 -6 -2 -16 4 -24
7 -12 9 -12 9 -1 0 10 3 11 13 2 8 -6 18 -7 22 -3 5 4 5 2 2 -4 -4 -7 0 -14 8
-17 10 -4 12 -1 9 11 -3 9 1 6 9 -7 10 -16 16 -20 22 -12 5 9 11 8 24 -3 10
-9 21 -13 26 -9 4 5 4 -3 0 -17 -7 -24 -7 -25 12 -7 20 17 20 17 18 -8 -2 -14
1 -23 6 -19 5 3 7 10 4 15 -4 5 -1 9 4 9 11 0 15 -15 11 -35 -1 -5 2 -7 6 -3
4 4 13 3 20 -3 8 -7 14 -7 19 1 3 5 11 10 16 10 6 0 8 -4 5 -9 -3 -4 6 -13 20
-20 15 -6 23 -7 19 -1 -9 15 4 12 20 -4 8 -7 11 -17 7 -22 -4 -5 0 -3 9 4 12
9 20 8 35 -4 18 -14 18 -14 -6 -4 -24 10 -24 10 -6 -4 16 -13 22 -13 35 -3 12
9 13 9 7 -1 -6 -11 5 -17 27 -13 4 0 7 -3 7 -9 0 -5 7 -10 15 -10 8 0 15 -6
15 -12 0 -10 3 -9 9 1 7 10 9 11 13 0 2 -7 18 -12 36 -12 24 0 29 -3 22 -12
-8 -10 -3 -12 20 -10 21 2 30 -2 30 -12 0 -12 -3 -13 -14 -4 -11 9 -16 9 -22
-1 -4 -7 -4 -10 1 -6 4 4 14 3 21 -3 8 -7 14 -7 18 0 4 6 14 4 27 -7 11 -9 21
-15 23 -12 2 3 9 0 17 -6 18 -14 51 -26 45 -16 -2 4 4 8 14 8 10 0 17 -3 15
-6 -2 -3 0 -12 5 -20 7 -12 11 -12 26 1 13 10 16 10 10 1 -5 -9 -3 -12 7 -10
9 2 17 -1 18 -7 4 -16 23 -33 31 -28 17 9 48 11 43 2 -4 -5 -10 -7 -15 -4 -5
3 -11 1 -15 -4 -3 -6 5 -8 19 -5 17 3 26 -1 29 -13 4 -17 5 -17 6 -1 1 15 4
14 24 -5 13 -12 22 -25 20 -29 -2 -3 11 -4 28 -1 22 3 29 1 24 -7 -5 -9 -1 -8
16 1 21 11 22 10 12 -3 -10 -12 -10 -15 2 -15 8 0 15 5 15 11 0 6 4 4 9 -4 6
-8 7 -18 4 -23 -3 -5 0 -8 7 -5 8 2 16 10 18 18 3 8 0 10 -8 5 -9 -5 -11 -4
-6 4 10 15 29 3 22 -15 -7 -17 15 -18 34 -1 8 6 6 1 -5 -12 -11 -14 -14 -21
-7 -17 20 12 70 18 52 7 -8 -5 -19 -7 -25 -3 -5 3 -4 -2 4 -11 8 -10 16 -15
19 -12 3 3 14 -3 25 -12 11 -10 17 -12 13 -5 -4 7 -1 12 9 12 9 0 13 -4 10
-10 -3 -5 -1 -10 4 -10 6 0 11 6 11 13 0 7 3 8 8 2 4 -6 20 -16 35 -23 15 -7
26 -16 23 -21 -3 -4 4 -8 17 -7 12 0 21 -4 20 -10 -1 -6 5 -11 12 -11 11 0 12
4 4 13 -7 9 -6 14 3 20 7 4 10 4 6 -1 -4 -4 -1 -14 7 -21 19 -19 26 -18 18 4
-7 16 -6 16 11 -1 10 -9 22 -15 27 -12 5 4 6 -1 3 -9 -5 -12 0 -16 17 -16 13
0 35 -9 49 -20 28 -22 40 -25 40 -10 0 6 -5 9 -11 8 -6 -2 -14 4 -16 12 -4 12
-3 12 5 2 5 -8 12 -13 16 -13 22 3 27 -1 22 -15 -5 -13 -4 -14 7 -6 8 7 16 9
19 7 3 -3 15 -7 26 -10 29 -5 62 -24 43 -25 -8 0 -12 -3 -9 -6 4 -3 19 2 35
11 18 11 22 12 10 2 -17 -14 -16 -15 3 -20 11 -3 18 -1 15 3 -3 5 -1 11 5 15
5 3 10 -1 10 -9 0 -9 6 -15 13 -14 6 2 11 -3 9 -10 -1 -8 2 -11 7 -7 6 3 8 12
5 19 -3 8 0 17 7 22 8 4 10 3 5 -4 -12 -19 3 -35 20 -21 17 14 19 -2 2 -20
-11 -10 -10 -11 5 -6 9 4 17 11 17 16 0 6 9 1 20 -9 16 -14 32 -17 77 -15 39
3 53 1 44 -6 -10 -7 -8 -9 12 -8 14 1 23 5 20 10 -2 4 1 7 6 7 6 0 11 -6 11
-12 0 -9 3 -8 9 2 6 8 7 18 4 24 -3 5 -1 6 5 2 6 -4 9 -13 6 -20 -8 -20 50
-14 74 7 12 11 22 14 26 8 4 -6 12 -9 19 -7 7 1 9 1 5 -1 -5 -3 -8 -9 -8 -15
0 -6 9 -3 20 7 11 10 17 22 14 26 -9 14 3 10 20 -7 15 -14 16 -14 16 3 1 17 2
17 16 -2 l16 -20 -4 20 c-2 12 3 20 12 20 8 1 25 6 37 13 17 9 23 9 27 -1 3
-6 3 0 1 15 -2 19 0 25 10 22 12 -5 33 19 33 39 0 5 2 11 5 13 3 3 3 -9 2 -26
-1 -17 0 -28 3 -25 6 6 12 29 14 52 1 7 5 10 10 7 5 -4 8 2 6 12 -2 12 2 18
11 16 14 -3 51 25 51 40 0 4 -5 8 -11 8 -5 0 -8 -4 -5 -9 3 -5 -1 -14 -9 -21
-18 -15 -19 -9 -3 25 6 14 17 24 24 21 7 -3 10 2 7 15 -3 10 -10 16 -16 12 -6
-3 -7 -1 -3 6 4 6 12 8 18 5 7 -5 9 0 6 13 -4 14 -1 20 11 19 8 0 16 4 16 11
0 6 3 15 8 19 4 4 0 15 -9 25 -12 13 -12 19 -3 25 7 4 10 3 6 -3 -3 -5 0 -10
8 -10 13 0 13 3 0 17 -14 16 -14 19 0 34 9 9 12 16 6 16 -6 0 -11 5 -11 11 0
5 4 7 10 4 6 -4 7 1 3 11 -4 11 -3 15 5 10 6 -3 14 -1 18 5 4 7 3 10 -2 6 -5
-3 -18 2 -29 10 -20 15 -20 15 2 9 12 -4 24 -2 29 5 4 8 3 9 -4 5 -7 -4 -12
-1 -12 8 0 8 -6 17 -12 19 -10 4 -10 6 0 6 7 1 10 6 6 13 -5 8 -2 9 9 5 10 -3
17 -2 17 3 0 9 -13 14 -31 12 -3 -1 -6 6 -6 14 0 10 4 11 11 4 5 -5 15 -10 21
-10 6 0 6 3 -1 8 -6 4 -14 21 -18 37 -4 19 -3 25 2 17 7 -11 10 -10 16 3 9 24
8 25 -11 19 -15 -5 -16 -4 -3 5 13 10 13 12 0 21 -13 9 -13 10 0 11 8 1 19 1
23 0 4 -1 3 9 -4 21 -11 21 -12 21 -25 3 -8 -10 -14 -14 -14 -8 0 14 25 35 33
27 3 -4 5 3 4 15 -1 11 -4 21 -7 21 -3 0 -6 11 -6 25 0 17 4 24 13 21 17 -7
12 16 -7 31 -12 10 -12 12 -1 13 7 0 11 6 8 13 -3 8 -1 20 3 28 5 8 4 19 -2
26 -15 19 2 16 26 -4 17 -14 16 -13 -2 9 -13 14 -22 34 -21 44 2 11 0 24 -4
30 -4 7 0 17 8 24 8 7 15 17 15 23 0 5 -10 2 -22 -9 l-22 -19 17 24 c10 16 13
29 7 36 -5 6 -5 16 2 25 8 12 9 11 3 -5 -3 -11 -2 -16 2 -11 4 4 8 21 9 37 0
25 -3 28 -20 24 -18 -5 -19 -5 -4 5 9 6 15 17 12 25 -4 8 -11 12 -17 8 -6 -3
-7 -1 -3 6 4 6 12 9 17 6 9 -6 10 -5 14 33 2 15 -3 21 -13 20 -8 -2 -17 4 -19
12 -4 13 -3 13 6 0 9 -12 11 -9 12 15 1 17 0 40 -1 53 -1 12 4 22 12 22 7 0 0
11 -15 25 -30 28 -33 36 -15 33 7 -2 13 7 14 19 1 12 -3 20 -8 17 -4 -3 -5
-10 -2 -16 4 -7 2 -8 -5 -4 -9 6 -8 13 3 31 12 17 13 26 4 31 -7 5 -8 3 -3 -7
8 -12 6 -12 -8 0 -18 14 -24 26 -8 17 5 -3 11 8 13 24 3 23 2 27 -8 19 -8 -7
-14 -6 -20 2 -4 7 -3 9 3 6 6 -4 15 5 21 18 7 16 8 26 1 30 -5 4 -8 1 -7 -6 2
-6 -4 -14 -12 -16 -13 -4 -13 -3 0 6 8 6 11 11 6 11 -5 0 -2 8 5 17 8 9 9 14
3 10 -7 -4 -14 4 -17 20 -5 25 -4 26 8 9 13 -18 14 -17 12 3 -1 19 -9 25 -29
22 -5 0 -8 4 -8 10 0 6 7 9 15 6 8 -4 17 -1 21 5 4 6 3 8 -3 5 -6 -4 -14 0
-17 9 -3 9 -11 12 -18 8 -10 -6 -11 -5 -1 8 7 8 9 19 5 23 -4 5 -1 5 6 1 7 -4
9 -13 5 -19 -4 -7 0 -6 10 2 17 13 24 26 10 18 -5 -3 -14 1 -21 9 -10 12 -10
14 2 14 8 0 18 5 22 12 4 7 3 8 -4 4 -7 -4 -20 -2 -29 4 -16 10 -16 11 -1 6
12 -3 16 1 15 15 -1 10 -4 19 -8 19 -19 0 -17 36 3 59 14 16 16 20 5 11 -16
-12 -18 -12 -16 1 1 7 -1 22 -6 32 -5 12 -1 25 11 39 11 12 14 18 7 15 -14 -9
-27 9 -13 18 18 11 0 26 -23 20 -19 -5 -19 -4 3 9 22 13 22 15 6 16 -20 0 -20
0 0 16 13 11 14 14 4 11 -11 -3 -16 2 -18 16 -1 15 1 18 7 9 7 -11 10 -10 14
3 4 10 3 14 -4 9 -6 -3 -10 1 -9 12 4 32 0 45 -9 39 -5 -3 -12 -1 -15 4 -4 5
-1 13 5 17 8 5 9 3 4 -6 -6 -9 -4 -11 4 -6 9 6 8 13 -6 28 -16 18 -16 21 -2
32 13 9 14 14 4 23 -7 7 -16 9 -21 5 -4 -4 -4 -2 0 5 4 7 14 9 24 6 13 -4 13
-2 -3 10 -20 15 -20 15 0 39 11 12 13 17 5 11 -18 -17 -27 -16 -27 2 0 8 5 11
10 8 6 -3 7 -1 3 5 -3 6 -2 13 4 17 14 9 1 27 -16 21 -8 -3 -11 0 -7 9 3 8 10
12 16 8 6 -3 7 -1 3 6 -6 8 -12 9 -20 2 -9 -8 -13 -7 -13 4 0 8 4 12 9 9 4 -3
8 7 8 21 0 15 4 24 10 20 6 -3 7 1 4 9 -3 9 -10 16 -16 16 -5 0 -7 -4 -4 -8 2
-4 1 -14 -4 -21 -5 -9 -7 -3 -7 17 1 17 5 28 8 26 4 -2 5 10 2 27 -3 23 -1 29
8 24 8 -5 10 -4 5 4 -6 9 -11 9 -22 0 -13 -10 -13 -8 -4 17 9 26 9 27 -4 10
-14 -18 -15 -18 -13 3 1 11 4 21 7 21 3 0 11 9 18 21 8 12 9 18 4 15 -5 -3
-18 4 -28 16 -11 12 -14 18 -7 15 6 -4 14 -3 18 3 3 5 -1 10 -9 10 -10 0 -13
6 -10 15 4 8 10 12 15 9 15 -9 10 3 -8 17 -10 8 -14 9 -10 2 4 -6 2 -15 -4
-19 -8 -4 -9 -3 -5 4 4 7 2 12 -5 12 -6 0 -1 9 12 20 13 11 18 19 10 18 -7 -2
-16 3 -19 11 -3 9 0 11 9 6 8 -5 11 -4 6 1 -5 5 -13 9 -19 9 -6 0 -12 8 -14
18 -1 9 2 15 7 11 5 -3 7 -10 4 -15 -3 -5 1 -6 10 -3 13 5 13 9 -5 24 -25 21
-26 31 -2 23 14 -5 14 -3 -3 14 -11 11 -24 18 -29 15 -5 -3 -6 0 -2 7 6 8 12
9 20 2 19 -16 14 25 -6 48 -8 9 -13 28 -11 40 2 12 -1 20 -6 17 -5 -3 -7 3 -4
15 5 16 8 18 15 7 8 -10 9 -10 5 2 -2 8 -11 14 -21 12 -9 -2 -16 2 -16 8 0 5
4 10 8 10 5 0 9 7 9 15 0 8 -4 15 -8 15 -5 0 -5 7 -2 17 4 11 3 14 -6 9 -6 -4
-10 -3 -9 3 2 5 -6 17 -17 26 -20 16 -20 16 3 5 26 -13 29 -3 5 17 -17 14 -17
14 1 9 14 -5 16 -3 9 6 -5 7 -13 22 -16 33 -7 20 -7 20 8 1 8 -11 15 -16 15
-11 0 18 -32 43 -48 37 -14 -5 -14 -3 2 13 18 18 18 19 0 26 -11 4 -13 8 -6 8
17 1 15 28 -3 35 -8 3 -12 12 -9 21 3 8 11 12 17 8 6 -3 7 -1 3 6 -4 6 -12 9
-17 6 -11 -7 -7 23 5 45 5 8 -4 4 -20 -10 -15 -14 -22 -17 -15 -8 10 14 11 21
2 32 -8 10 -9 16 -2 21 6 3 10 21 8 38 -2 26 2 32 16 30 12 0 16 4 13 13 -3 8
1 14 8 14 8 0 17 11 20 25 4 14 11 23 16 20 6 -3 11 1 11 9 1 9 2 21 3 28 1
10 19 17 52 20 7 1 11 14 10 30 l-2 28 24 -23 25 -22 -18 28 c-10 15 -15 30
-11 34 3 3 6 1 6 -5 0 -7 5 -12 11 -12 5 0 7 5 4 10 -3 6 -2 10 4 10 5 0 11
-3 14 -7 4 -9 0 10 -9 35 -5 14 -4 13 9 -3 15 -18 16 -18 17 -2 0 9 5 17 11
17 5 0 7 -5 3 -12 -4 -7 -3 -8 5 -4 6 4 9 12 6 17 -4 5 -2 9 4 9 6 0 7 7 4 17
-4 11 -3 14 5 9 7 -4 12 -3 12 3 0 10 17 9 40 -3 8 -4 5 1 -7 12 -19 17 -20
21 -7 26 22 9 26 8 18 -6 -4 -7 -3 -8 5 -4 6 4 9 12 6 17 -4 5 1 12 9 15 9 3
13 10 10 15 -3 5 2 9 12 9 14 0 15 2 3 17 -13 15 -12 15 11 3 23 -12 24 -12
11 4 -12 14 -12 16 3 10 9 -3 16 -1 16 6 0 6 5 8 13 4 9 -6 9 -4 -1 8 -10 13
-10 18 -1 24 7 4 10 3 7 -2 -3 -5 1 -15 9 -23 13 -12 14 -11 8 8 -6 19 1 26
26 23 3 -1 5 10 3 24 -1 13 2 22 7 18 5 -3 9 -13 10 -22 0 -14 2 -13 9 3 12
28 12 37 -2 29 -6 -4 -8 -3 -4 4 3 6 16 9 29 7 22 -4 22 -4 2 11 -19 15 -19
15 8 10 16 -3 25 -1 22 5 -4 5 1 19 9 31 9 12 16 18 16 12 0 -5 -5 -15 -11
-21 -8 -8 -8 -13 0 -18 6 -3 10 -3 9 2 -5 13 46 58 62 55 10 -2 11 0 4 5 -6 4
-11 16 -11 25 0 14 3 15 14 6 10 -8 17 -8 24 -1 8 8 7 13 -2 18 -8 6 -10 4 -4
-5 5 -9 4 -11 -4 -6 -16 11 -3 26 16 19 12 -5 14 -3 8 7 -6 10 -4 12 8 7 13
-5 17 -1 17 16 0 18 2 19 10 7 8 -13 10 -12 11 5 1 11 1 23 0 27 0 4 7 4 16 1
11 -4 14 -3 9 5 -4 8 0 12 12 12 28 0 80 65 73 93 -1 5 3 6 9 2 8 -5 7 -12 -2
-23 -12 -15 -11 -16 4 -3 10 7 18 22 18 32 0 11 5 19 11 19 5 0 7 -5 3 -12 -5
-7 -3 -8 5 -4 7 5 10 15 6 23 -4 13 -3 13 9 4 11 -9 15 -8 20 4 4 11 2 14 -6
9 -7 -4 -8 -3 -4 4 4 7 14 12 23 12 9 0 13 6 10 14 -3 8 6 24 20 37 15 13 23
18 19 12 -10 -17 2 -16 20 1 20 20 18 25 -8 20 -13 -2 -5 3 18 11 34 13 41 20
39 40 -3 21 0 23 20 15 20 -7 22 -6 18 11 -4 12 3 29 17 44 19 20 26 23 39 12
12 -9 13 -9 7 1 -4 7 -2 12 6 12 9 0 9 3 -2 10 -13 8 -13 10 1 10 9 0 23 7 30
17 13 15 12 15 -8 5 -12 -7 -25 -12 -30 -12 -4 1 3 7 17 15 18 10 28 10 38 2
7 -5 12 -6 11 -1 -4 23 2 35 14 28 8 -5 8 -3 -2 9 -12 15 -10 18 10 26 13 4
29 7 34 6 6 -1 7 0 2 2 -4 3 -4 9 -1 15 4 6 0 6 -13 0 -15 -8 -20 -8 -20 2 0
8 11 12 28 11 15 -1 28 1 27 4 -2 21 4 31 20 32 10 0 12 3 5 6 -7 2 -13 9 -13
14 0 6 5 7 10 4 9 -6 14 8 11 28 -1 4 7 3 17 -2 14 -7 19 -6 19 4 0 8 -4 12
-9 9 -4 -3 -5 2 -1 12 5 14 8 13 20 -7 l13 -24 -6 28 c-4 17 -2 27 6 27 6 0 8
-6 4 -12 -5 -10 -3 -10 7 0 12 11 12 14 0 21 -9 6 -10 10 -2 16 7 4 18 2 25
-4 11 -9 14 -8 12 6 0 10 4 17 9 16 6 -1 12 7 12 18 1 12 -2 17 -10 13 -7 -4
-2 4 11 18 12 13 19 28 15 33 -5 4 -2 5 5 1 8 -5 12 -1 12 11 0 13 3 14 8 6
14 -23 50 12 48 46 -2 25 0 28 16 20 13 -7 20 -4 29 12 8 15 8 19 0 15 -6 -4
-11 -2 -11 3 0 6 5 12 10 12 6 1 14 2 19 3 5 0 13 5 18 10 4 5 3 6 -3 3 -7 -4
-14 0 -17 7 -4 10 0 13 14 11 16 -3 17 -1 9 15 -8 16 -8 18 5 14 8 -4 15 -11
15 -17 0 -6 3 -8 6 -5 3 4 0 17 -7 30 -11 21 -11 22 5 9 15 -12 17 -12 14 0
-2 8 3 13 10 11 8 -1 11 2 7 7 -3 6 -12 8 -19 5 -8 -3 -16 -1 -19 3 -3 5 9 9
26 9 20 0 31 5 29 12 -1 7 5 12 14 12 8 0 12 4 9 10 -12 20 -14 50 -2 47 7 -1
11 4 9 11 -1 8 1 11 6 8 5 -3 18 2 28 10 10 9 14 13 8 10 -6 -3 -11 1 -11 9 0
13 3 13 22 1 18 -12 22 -12 22 -1 0 8 -4 12 -9 9 -4 -3 -8 2 -8 11 0 11 5 15
16 11 8 -3 12 -2 9 4 -3 6 -1 10 6 10 7 0 4 7 -7 15 -18 14 -17 14 11 5 l29
-11 -19 22 c-20 22 -20 22 2 10 16 -8 24 -8 29 1 5 7 3 8 -6 3 -8 -5 -11 -3
-8 6 3 8 11 13 17 11 9 -2 9 3 1 18 -13 25 -7 26 16 3 17 -17 18 -17 11 0 -20
50 -20 53 -3 32 11 -14 15 -15 14 -5 -2 8 3 14 10 12 8 -1 11 2 7 8 -3 6 -12
7 -18 4 -7 -4 -2 3 11 16 13 12 21 29 18 37 -4 8 -1 11 5 8 6 -4 8 -14 4 -22
-4 -13 -3 -14 10 -3 12 10 12 16 3 34 -10 18 -9 19 4 9 8 -7 18 -10 21 -6 10
9 9 25 -1 19 -5 -3 -9 1 -9 8 0 8 7 12 15 8 9 -3 13 -1 9 4 -3 5 3 21 14 34
11 14 18 18 17 10 -2 -8 -10 -20 -18 -27 -8 -7 -11 -13 -6 -13 5 0 18 7 27 16
14 12 16 21 9 34 -7 13 -5 22 7 31 9 8 14 9 11 4 -4 -6 3 -12 15 -12 16 -2 18
0 8 7 -12 7 -12 12 -3 23 7 7 9 17 5 20 -3 4 -1 7 6 7 9 0 9 5 0 23 -11 19
-10 21 3 9 13 -10 16 -10 15 0 -1 31 4 48 14 48 5 0 7 -6 3 -12 -5 -9 -2 -9 9
1 18 14 24 26 8 17 -5 -3 -14 1 -21 9 -10 12 -8 14 7 10 17 -3 20 2 19 35 -1
21 1 37 5 34 3 -2 15 6 25 17 10 11 14 20 9 19 -28 -6 -36 0 -21 16 19 18 21
38 4 28 -10 -5 -10 -4 -1 6 6 7 9 20 5 29 -5 14 -4 14 11 2 15 -12 17 -12 11
3 -3 9 -10 16 -15 16 -5 0 -9 5 -9 11 0 5 4 8 9 4 10 -6 7 27 -4 45 -4 6 -1
18 7 27 9 12 9 15 1 9 -8 -4 -13 -2 -13 4 0 6 -5 8 -12 4 -9 -6 -9 -3 0 9 12
14 11 16 -6 12 -20 -3 -23 9 -9 31 4 7 0 17 -8 24 -8 7 -13 16 -10 20 3 5 -4
6 -15 3 -14 -4 -20 0 -21 11 -1 9 -3 21 -4 26 -1 6 -3 12 -4 15 0 3 -11 0 -23
-6 -20 -11 -22 -11 -10 3 8 10 9 19 3 22 -5 4 -15 -2 -21 -11 -11 -17 -11 -17
-6 0 3 9 1 17 -5 17 -6 0 -7 5 -3 12 5 8 2 9 -9 5 -20 -8 -22 3 -4 23 6 8 1 6
-12 -5 -21 -17 -24 -18 -18 -3 3 10 1 20 -5 24 -7 4 -8 3 -4 -4 4 -7 2 -12 -3
-12 -6 0 -11 5 -11 11 0 8 -4 8 -14 0 -11 -9 -16 -9 -22 0 -4 8 -3 9 4 5 14
-8 16 13 3 33 -7 11 -10 9 -16 -8 l-7 -22 -19 22 c-10 12 -25 19 -33 16 -10
-4 -13 -1 -9 9 3 7 0 14 -7 14 -6 0 -8 5 -4 12 4 7 3 8 -5 4 -6 -4 -9 -11 -6
-16 3 -5 0 -12 -6 -16 -7 -4 -10 -3 -6 2 3 5 -2 18 -10 29 -15 19 -15 19 -9
-5 6 -25 6 -25 -5 -2 -7 12 -16 22 -21 22 -5 0 -6 -4 -3 -10 3 -6 -1 -7 -9 -4
-9 3 -16 10 -16 15 0 5 -11 9 -23 9 -15 0 -29 9 -36 23 -6 12 -9 14 -7 5 3
-10 1 -18 -4 -18 -6 0 -10 7 -10 16 0 14 -3 13 -17 -3 -10 -10 -15 -14 -10 -9
12 16 8 25 -10 25 -54 1 -68 7 -67 26 1 14 -5 21 -17 21 -22 0 -25 -12 -6 -19
6 -3 2 -4 -10 -4 -15 1 -20 6 -18 19 3 15 1 16 -17 7 -15 -8 -19 -8 -14 0 4 6
0 11 -9 11 -9 0 -23 7 -32 15 -14 14 -18 14 -42 -1 -20 -13 -23 -14 -14 -2 10
12 10 18 -1 33 -10 14 -15 15 -21 5 -6 -9 -4 -11 5 -5 8 5 11 3 8 -5 -2 -8
-10 -16 -18 -18 -7 -3 -10 0 -7 5 3 5 2 15 -4 23 -6 10 -9 11 -9 3 0 -7 -5
-13 -11 -13 -6 0 -8 9 -4 23 7 22 7 22 -10 2 -9 -11 -14 -15 -11 -9 3 6 -6 16
-19 22 -14 6 -24 8 -24 4 3 -18 -2 -22 -15 -10 -8 7 -12 16 -10 20 2 3 -4 5
-13 3 -10 -1 -24 2 -30 8 -7 5 -13 6 -13 2 0 -4 -11 0 -24 9 -16 10 -27 12
-31 6 -4 -6 -13 -7 -22 -1 -9 4 -24 6 -34 4 -11 -3 -19 0 -19 7 0 7 -8 10 -20
7 -14 -4 -20 0 -21 11 0 12 -3 10 -9 -5 -5 -13 -12 -23 -14 -23 -3 0 -3 7 0
15 3 8 -2 22 -12 32 -17 17 -18 17 -11 0 5 -14 2 -16 -18 -13 -14 3 -32 11
-40 19 -16 17 -58 11 -49 -7 3 -6 -3 -1 -14 12 -25 28 -35 28 -27 1 6 -18 3
-17 -25 8 -19 16 -40 27 -52 25 -12 -2 -25 2 -29 10 -6 9 -9 9 -9 1 0 -7 8
-17 18 -22 9 -6 12 -11 6 -11 -6 0 -21 11 -34 25 -21 22 -48 26 -35 5 3 -5 0
-12 -7 -16 -7 -4 -10 -3 -5 1 4 5 0 17 -10 27 -16 17 -17 17 -36 1 -11 -10
-17 -13 -14 -6 4 6 3 14 -3 18 -5 3 -10 2 -10 -3 0 -13 -43 -7 -48 6 -3 9 -9
9 -25 0 -19 -10 -20 -9 -9 4 10 13 9 15 -12 13 -14 -2 -30 -6 -35 -10 -6 -3
-9 0 -5 8 3 8 -1 14 -10 14 -8 0 -13 -5 -10 -11 3 -6 -4 0 -15 14 -14 16 -19
19 -15 8 3 -10 1 -18 -5 -18 -6 0 -11 5 -11 11 0 8 -5 7 -16 -2 -14 -11 -18
-10 -30 6 -9 11 -14 14 -14 6 0 -11 -3 -11 -17 0 -10 8 -14 9 -10 2 4 -6 3
-15 -3 -18 -6 -4 -10 -3 -9 2 4 23 -2 32 -18 26 -12 -5 -14 -3 -8 7 5 9 4 11
-3 6 -7 -4 -12 -15 -13 -24 0 -12 -3 -10 -10 7 -6 14 -15 21 -23 18 -8 -3 -17
-1 -19 6 -2 7 -3 4 -2 -5 2 -9 -3 -19 -10 -22 -9 -3 -12 2 -10 14 3 14 -1 17
-12 13 -12 -5 -14 -3 -8 7 5 8 4 11 -3 6 -6 -4 -8 -14 -5 -23 5 -13 0 -12 -26
6 -27 20 -34 21 -48 9 -15 -11 -16 -11 -10 7 7 19 6 19 -7 2 -12 -16 -14 -16
-20 -2 -5 13 -10 14 -28 4 -22 -12 -22 -11 -8 6 14 17 14 18 -5 8 -15 -9 -22
-8 -33 5 -7 10 -11 12 -8 6 3 -7 -1 -17 -9 -24 -12 -10 -13 -8 -10 11 4 17 2
20 -7 11 -9 -9 -19 -6 -42 16 -21 18 -24 19 -12 5 16 -20 17 -23 3 -23 -8 0
-18 6 -20 13 -3 6 -6 3 -6 -8 -1 -16 -3 -17 -10 -5 -6 8 -7 18 -4 24 3 5 1 6
-6 2 -6 -4 -9 -11 -6 -15 2 -5 -7 -6 -20 -3 -14 2 -22 8 -19 13 3 5 -2 6 -10
3 -9 -3 -13 -11 -10 -16 4 -6 -4 -3 -18 6 -13 9 -35 13 -51 11 -16 -3 -27 -1
-27 5 0 6 4 8 10 5 6 -3 7 1 3 10 -4 12 -8 13 -13 4 -5 -7 -18 -9 -30 -6 -21
6 -22 5 -3 -16 15 -19 14 -18 -9 2 -15 13 -25 28 -21 34 3 6 1 7 -6 3 -6 -4
-8 -13 -4 -19 3 -7 -4 -3 -17 8 l-23 20 13 -25 c13 -24 12 -24 -5 -10 -10 8
-20 14 -22 13 -1 -2 -6 -3 -10 -3 -5 0 -2 4 6 9 9 6 10 11 2 15 -6 4 -11 2
-11 -3 0 -12 -33 -15 -43 -4 -4 3 -1 13 5 22 8 10 4 9 -10 -3 -12 -11 -25 -16
-29 -13 -3 4 -13 1 -21 -6 -13 -10 -15 -9 -9 5 4 12 2 15 -8 11 -8 -3 -13 -8
-10 -12 2 -4 -2 -8 -10 -8 -8 0 -12 4 -9 9 3 4 0 8 -6 8 -6 0 -8 5 -4 12 4 7
3 8 -5 4 -6 -4 -8 -12 -5 -18 5 -8 1 -9 -10 -5 -10 4 -20 7 -23 7 -3 0 1 8 8
18 12 15 11 15 -8 -1 -16 -14 -22 -15 -26 -5 -2 7 -8 10 -12 6 -4 -4 -2 -16 6
-25 12 -16 12 -17 -2 -6 -9 7 -20 9 -24 5 -5 -4 -5 -1 -1 6 4 6 2 12 -4 12 -6
0 -8 5 -5 10 3 6 1 10 -4 10 -6 0 -11 -7 -11 -15 0 -8 -5 -15 -11 -15 -5 0 -8
4 -4 10 3 5 -9 8 -29 7 -22 -2 -32 1 -30 8 3 7 -2 12 -11 12 -10 0 -14 -6 -10
-16 5 -12 3 -13 -6 -4 -6 6 -18 9 -27 6 -11 -5 -13 -3 -7 7 5 9 4 11 -4 6 -18
-12 -61 -15 -61 -5 0 5 -7 9 -16 9 -9 0 -12 -5 -8 -12 4 -7 -1 -5 -12 4 -16
14 -23 15 -33 5 -11 -10 -11 -8 -2 13 l12 25 -20 -24 c-20 -22 -21 -22 -21 -3
0 12 -5 24 -11 28 -8 4 -9 -1 -4 -17 3 -13 3 -19 -2 -14 -4 6 -14 11 -20 13
-7 1 -19 3 -25 5 -20 3 -28 20 -22 41 5 16 4 17 -9 5 -8 -8 -12 -18 -9 -24 3
-6 1 -6 -4 -2 -5 5 -9 12 -9 15 0 4 -4 12 -8 19 -4 6 -2 15 3 18 8 5 7 12 -4
23 -8 10 -15 22 -15 27 -1 6 -4 10 -8 10 -5 0 -19 11 -32 24 -15 15 -18 22 -8
18 11 -4 14 -2 10 8 -3 8 -9 12 -14 9 -5 -3 -9 7 -9 21 0 17 -4 24 -12 19 -8
-5 -9 -2 -4 11 5 15 4 16 -9 5 -14 -11 -14 -10 -6 12 9 23 7 25 -10 21 -15 -4
-19 0 -19 18 0 20 -2 21 -11 9 -8 -12 -9 -10 -4 7 4 16 2 22 -7 20 -7 -2 -10
-2 -5 0 4 3 7 11 7 19 0 8 5 14 12 14 6 0 8 3 5 6 -4 4 -13 1 -22 -6 -13 -10
-15 -9 -15 9 0 11 5 21 12 21 6 0 8 3 4 7 -4 5 -14 -1 -22 -11 -14 -20 -14
-20 -15 0 -1 10 -1 25 0 32 2 10 -5 12 -21 7 -14 -4 -18 -3 -10 2 17 13 11 63
-7 63 -12 0 -12 -3 -3 -12 7 -7 12 -16 12 -22 0 -5 -6 -1 -14 10 -11 15 -12
22 -3 33 10 12 9 14 -5 8 -13 -4 -15 -2 -11 11 6 15 4 15 -9 4 -14 -11 -16
-10 -11 7 3 12 10 18 17 14 6 -4 0 7 -14 24 -14 17 -29 28 -35 25 -5 -3 -4 1
3 9 15 16 16 29 1 29 -5 0 -7 -5 -3 -12 5 -7 3 -8 -5 -4 -7 5 -10 15 -7 23 5
12 1 14 -16 10 -22 -6 -22 -5 -4 8 11 8 14 15 7 15 -7 0 -9 5 -6 10 3 6 -1 10
-10 10 -11 0 -15 5 -11 16 3 8 2 12 -4 9 -6 -3 -10 3 -10 13 0 11 -7 23 -16
26 -10 4 -14 12 -10 22 4 11 2 15 -8 11 -10 -4 -13 -1 -9 9 3 7 10 14 16 14 6
0 7 3 4 6 -4 4 -14 1 -24 -7 -11 -9 -14 -10 -9 -1 4 7 1 15 -8 18 -13 5 -13
10 -4 27 10 19 9 20 -4 9 -13 -10 -18 -10 -24 -1 -4 8 -3 9 4 5 14 -9 16 13 2
34 -6 9 -5 20 3 29 10 12 9 13 -3 6 -22 -14 -39 -15 -47 -3 -3 7 -1 8 5 4 7
-4 12 -2 12 3 0 6 -5 11 -11 11 -6 0 -9 9 -6 20 3 12 -3 29 -15 43 l-19 22 16
-30 c16 -28 16 -29 0 -10 -9 11 -21 19 -26 17 -13 -3 -11 4 7 22 14 15 14 16
-3 17 -10 1 -25 1 -33 0 -11 -1 -11 1 3 9 22 14 22 31 0 23 -17 -7 -17 -6 -1
19 17 26 8 32 -20 14 -11 -7 -12 -4 -3 11 12 24 5 34 -17 25 -15 -5 -15 -3 -4
10 11 14 10 19 -9 32 -19 13 -20 18 -9 31 11 13 10 15 -6 9 -10 -4 -26 -12
-34 -18 -8 -6 -5 1 8 16 17 19 20 28 11 33 -8 5 -10 4 -5 -3 4 -7 1 -12 -9
-12 -13 0 -14 4 -4 23 12 21 11 21 -6 7 -17 -14 -18 -14 -5 10 12 23 12 24 -3
11 -15 -11 -17 -11 -17 1 0 8 3 18 8 24 4 5 6 8 3 7 -2 -1 -10 5 -18 13 -8 8
-19 12 -24 9 -5 -4 -9 -1 -9 4 0 6 5 11 11 11 6 0 9 6 6 13 -2 6 -16 11 -31
11 -19 -1 -24 2 -17 9 15 15 14 38 -1 35 -7 -2 -12 3 -10 9 2 14 -33 54 -42
47 -3 -2 -4 -1 -1 3 3 3 0 12 -6 19 -6 8 -6 14 0 18 6 4 4 18 -6 36 -15 31
-25 40 -19 18 1 -7 1 -10 -1 -5 -3 4 -8 5 -12 3 -4 -3 -7 4 -7 14 0 10 5 16
10 13 5 -3 6 -1 2 5 -4 7 -14 12 -22 12 -8 0 -14 5 -14 11 0 5 -5 7 -12 3 -7
-4 -8 -3 -4 5 5 7 13 9 20 4 7 -4 4 -1 -5 8 -14 13 -15 19 -6 29 10 10 8 10
-10 1 -20 -10 -22 -9 -16 6 6 16 5 16 -10 5 -14 -12 -16 -11 -12 7 2 11 -3 28
-11 36 -9 8 -12 15 -8 15 4 0 -1 7 -12 16 -10 8 -13 12 -6 9 11 -6 12 -3 3 14
-7 11 -14 21 -17 21 -3 0 -2 -4 1 -10 3 -5 1 -10 -4 -10 -17 0 -13 18 5 28 14
8 12 10 -11 16 -19 5 -25 11 -21 22 4 10 -1 18 -13 21 -11 3 -17 11 -15 17 3
7 -3 19 -13 27 -17 13 -17 13 -3 -6 14 -19 14 -19 -3 -6 -10 8 -15 21 -12 29
5 12 3 13 -10 2 -9 -7 -15 -9 -14 -4 1 5 -5 25 -14 44 -8 19 -13 38 -11 42 3
4 -5 5 -16 3 -11 -2 -18 0 -15 5 3 5 1 12 -5 15 -8 5 -7 12 2 23 7 10 -1 6
-17 -8 -16 -14 -25 -18 -19 -10 6 8 14 24 17 35 l7 20 -16 -20 c-16 -20 -16
-20 -11 2 3 13 -1 27 -9 34 -8 7 -13 18 -10 25 3 8 0 11 -10 7 -11 -4 -12 -9
-4 -18 8 -10 8 -15 -1 -21 -7 -4 -9 -3 -5 4 3 6 -2 15 -11 21 -10 6 -13 11 -7
11 6 0 11 7 11 15 0 11 -4 12 -14 3 -7 -6 -16 -8 -20 -4 -3 3 -1 6 5 6 7 0 12
5 12 11 0 5 -4 7 -10 4 -17 -10 -11 7 8 22 15 13 15 13 -5 4 -29 -15 -36 -14
-29 4 3 9 0 15 -9 15 -18 0 -20 27 -2 33 6 2 0 8 -15 12 -31 8 -34 15 -15 34
10 11 8 11 -9 0 -19 -11 -24 -10 -39 4 -9 9 -13 17 -8 17 5 0 14 -5 20 -11 8
-8 13 -8 17 0 4 6 5 12 2 12 -3 1 -10 3 -16 4 -5 1 -16 3 -24 4 -9 1 -13 10
-11 26 1 14 0 23 -3 21 -2 -3 -13 5 -24 17 -11 12 -17 16 -13 10 3 -7 1 -13
-4 -13 -6 0 -11 7 -11 16 0 11 -5 14 -16 10 -14 -5 -15 -4 -5 8 9 11 9 16 0
22 -8 4 -9 3 -5 -4 4 -7 2 -12 -3 -12 -15 0 -14 27 2 34 6 3 2 3 -10 0 -18 -4
-23 -1 -23 14 0 26 -21 43 -48 37 -15 -2 -19 0 -15 11 3 7 9 12 13 9 5 -3 11
-1 14 4 4 5 -2 8 -11 6 -10 -2 -18 -4 -18 -5 0 -1 -8 -3 -18 -5 -9 -2 -15 1
-11 6 3 5 9 7 13 5 4 -3 8 1 8 9 0 8 -2 13 -5 10 -3 -2 -17 4 -31 14 -14 10
-32 17 -39 15 -7 -1 -8 0 -2 3 5 2 10 12 10 20 0 13 -2 13 -17 2 -14 -12 -16
-12 -11 1 3 9 -5 29 -18 45 -14 17 -22 22 -18 12 5 -13 2 -16 -10 -11 -11 4
-15 14 -11 28 2 11 2 15 -1 9 -8 -19 -27 -16 -20 3 3 8 2 12 -4 9 -6 -3 -10
-2 -10 3 0 8 -7 10 -51 14 -19 2 -20 3 -2 16 17 13 16 14 -4 7 -14 -4 -23 -2
-23 5 0 6 -5 8 -12 4 -7 -5 -9 -2 -6 8 4 8 0 15 -8 15 -7 0 -11 -5 -7 -10 3
-5 -4 -4 -14 2 -11 6 -24 7 -28 3 -5 -4 -5 -1 -1 6 6 9 1 11 -18 8 -17 -3 -26
0 -26 9 0 7 -7 16 -16 19 -15 6 -15 4 -3 -11 7 -10 9 -15 4 -10 -4 4 -17 -1
-28 -10 -19 -17 -20 -17 -8 4 8 16 8 24 -1 29 -6 4 -8 3 -5 -3z m257 -117 c0
-3 -4 -8 -10 -11 -5 -3 -10 -1 -10 4 0 6 5 11 10 11 6 0 10 -2 10 -4z m79 -69
c0 -8 -2 -8 -6 1 -4 10 -8 10 -19 1 -9 -7 -14 -8 -14 -1 0 12 21 22 33 15 4
-2 7 -10 6 -16z m76 -77 c3 -6 -1 -7 -9 -4 -18 7 -21 14 -7 14 6 0 13 -4 16
-10z m-758 -65 c0 -8 -4 -12 -9 -9 -5 3 -6 10 -3 15 9 13 12 11 12 -6z m847
-1 c5 -13 4 -14 -7 -6 -8 7 -18 8 -22 4 -5 -4 -5 -1 -1 6 10 17 23 15 30 -4z
m-909 -72 c-3 -3 -11 0 -18 7 -9 10 -8 11 6 5 10 -3 15 -9 12 -12z m1025 -67
c0 -5 -5 -3 -10 5 -5 8 -10 20 -10 25 0 6 5 3 10 -5 5 -8 10 -19 10 -25z
m-1155 -95 c4 -6 1 -9 -7 -8 -7 2 -12 -3 -10 -10 1 -8 -2 -11 -8 -7 -8 5 -7
11 1 21 14 17 16 17 24 4z m1247 -7 c-6 -3 -9 -10 -5 -16 4 -7 -1 -6 -10 2
-21 17 -21 17 6 18 12 0 16 -1 9 -4z m123 -153 c3 -5 1 -10 -4 -10 -6 0 -11 5
-11 10 0 6 2 10 4 10 3 0 8 -4 11 -10z m72 -106 c-3 -3 -12 -4 -19 -1 -8 3 -5
6 6 6 11 1 17 -2 13 -5z m318 -464 c3 -6 -1 -7 -9 -4 -18 7 -21 14 -7 14 6 0
13 -4 16 -10z m130 -219 c3 -5 2 -12 -3 -15 -5 -3 -9 1 -9 9 0 17 3 19 12 6z
m-2500 -31 c3 -5 -1 -10 -10 -10 -9 0 -13 5 -10 10 3 6 8 10 10 10 2 0 7 -4
10 -10z m2590 -120 c3 -5 1 -10 -4 -10 -6 0 -11 5 -11 10 0 6 2 10 4 10 3 0 8
-4 11 -10z m-2684 -33 c-10 -9 -11 -8 -5 6 3 10 9 15 12 12 3 -3 0 -11 -7 -18z
m-34 -62 c0 -8 -4 -12 -9 -9 -5 3 -6 10 -3 15 9 13 12 11 12 -6z m2877 -191
c3 -8 2 -12 -4 -9 -6 3 -10 10 -10 16 0 14 7 11 14 -7z m-3137 -262 c-10 -10
-14 -22 -10 -27 5 -4 2 -5 -4 -1 -10 5 -10 11 0 26 6 11 16 20 21 20 5 0 2 -8
-7 -18z m3328 -72 c3 -5 1 -10 -4 -10 -6 0 -11 5 -11 10 0 6 2 10 4 10 3 0 8
-4 11 -10z m279 -489 c-4 -3 -9 0 -11 7 -3 6 -10 9 -15 6 -7 -4 -8 -2 -4 5 6
9 11 9 22 0 8 -6 12 -15 8 -18z m-3952 -53 c-7 -7 -12 -8 -12 -2 0 14 12 26
19 19 2 -3 -1 -11 -7 -17z m4589 -115 c13 -16 12 -17 -3 -4 -10 7 -18 15 -18
17 0 8 8 3 21 -13z m27 -8 c-3 -3 -9 2 -12 12 -6 14 -5 15 5 6 7 -7 10 -15 7
-18z m-5485 -10 c4 -8 3 -16 -1 -19 -4 -3 -9 4 -9 15 -2 23 3 25 10 4z m-128
-25 c-3 -5 -12 -10 -18 -10 -7 0 -6 4 3 10 19 12 23 12 15 0z m6355 -70 c0 -5
-2 -10 -4 -10 -3 0 -8 5 -11 10 -3 6 -1 10 4 10 6 0 11 -4 11 -10z m185 -40
c-3 -5 -12 -10 -18 -10 -7 0 -6 4 3 10 19 12 23 12 15 0z m229 -36 c3 -8 2
-12 -4 -9 -6 3 -10 10 -10 16 0 14 7 11 14 -7z m56 -14 c6 -11 8 -20 6 -20 -3
0 -10 9 -16 20 -6 11 -8 20 -6 20 3 0 10 -9 16 -20z m83 -13 c3 -8 -1 -14 -8
-14 -7 0 -11 6 -8 14 3 7 6 13 8 13 2 0 5 -6 8 -13z m133 -29 c4 -7 3 -8 -4
-4 -7 4 -12 2 -12 -5 0 -7 -3 -10 -6 -6 -6 5 3 27 11 27 2 0 7 -5 11 -12z
m-8083 -13 c-3 -9 -8 -14 -10 -11 -3 3 -2 9 2 15 9 16 15 13 8 -4z m8343 -56
c19 -22 19 -22 -3 -8 -13 8 -23 17 -23 21 0 12 6 9 26 -13z m-8598 -24 c-3 -3
-9 2 -12 12 -6 14 -5 15 5 6 7 -7 10 -15 7 -18z m8655 0 c-3 -9 -8 -14 -10
-11 -3 3 -2 9 2 15 9 16 15 13 8 -4z m77 -20 c0 -8 -2 -15 -4 -15 -2 0 -6 7
-10 15 -3 8 -1 15 4 15 6 0 10 -7 10 -15z m-9040 -53 c0 -13 -12 -22 -22 -16
-10 6 -1 24 13 24 5 0 9 -4 9 -8z m9899 -365 c8 -10 7 -14 -4 -14 -8 0 -12 4
-9 8 2 4 -2 10 -8 12 -8 4 -9 6 -2 6 6 1 17 -5 23 -12z m38 -93 c-3 -3 -12 -4
-19 -1 -8 3 -5 6 6 6 11 1 17 -2 13 -5z m7 -42 c3 -5 -1 -9 -9 -9 -8 0 -12 4
-9 9 3 4 7 8 9 8 2 0 6 -4 9 -8z m-99 -373 c-4 -5 -12 -9 -18 -8 -9 0 -8 2 1
6 6 2 9 10 6 15 -4 7 -2 8 5 4 6 -4 9 -12 6 -17z m-496 -683 c-3 -3 -11 5 -18
17 -13 21 -12 21 5 5 10 -10 16 -20 13 -22z m-48 -59 c-7 -7 -14 -8 -21 -1 -6
6 -2 10 12 11 16 2 18 -1 9 -10z m-9346 -17 c-3 -5 -1 -10 6 -10 7 0 10 -3 6
-6 -9 -9 -28 6 -22 17 4 5 8 9 11 9 3 0 2 -4 -1 -10z m9250 -91 c-4 -5 -12 -9
-18 -8 -9 0 -8 2 1 6 6 2 9 10 6 15 -4 7 -2 8 5 4 6 -4 9 -12 6 -17z m-154
-162 c-10 -9 -11 -8 -5 6 3 10 9 15 12 12 3 -3 0 -11 -7 -18z m-71 -87 c0 -5
-5 -10 -11 -10 -5 0 -7 5 -4 10 3 6 8 10 11 10 2 0 4 -4 4 -10z m-280 -294 c0
-2 -7 -7 -16 -10 -8 -3 -12 -2 -9 4 6 10 25 14 25 6z m-126 -147 c-9 -10 -22
-19 -28 -19 -6 0 -4 5 4 10 8 5 16 14 16 20 3 20 4 21 15 15 7 -5 4 -14 -7
-26z m-200 -184 c-4 -8 -8 -15 -10 -15 -2 0 -4 7 -4 15 0 8 4 15 10 15 5 0 7
-7 4 -15z m-7114 -349 c0 -2 -7 -7 -16 -10 -8 -3 -12 -2 -9 4 6 10 25 14 25 6z
m6653 -97 c-8 -8 -13 -7 -18 2 -5 8 -4 10 3 5 7 -4 12 -2 12 5 0 7 3 9 7 6 4
-4 2 -12 -4 -18z m-89 -445 c3 -8 2 -12 -4 -9 -6 3 -10 10 -10 16 0 14 7 11
14 -7z m75 -277 c8 -10 7 -14 -2 -14 -8 0 -14 6 -14 14 0 7 1 13 2 13 2 0 8
-6 14 -13z m55 -298 c-3 -5 -10 -7 -15 -3 -5 3 -7 10 -3 15 3 5 10 7 15 3 5
-3 7 -10 3 -15z m-6699 -49 c3 -5 1 -10 -4 -10 -6 0 -11 5 -11 10 0 6 2 10 4
10 3 0 8 -4 11 -10z m6740 -210 c-3 -5 -12 -10 -18 -10 -7 0 -6 4 3 10 19 12
23 12 15 0z m37 -362 c-8 -8 -9 -15 -1 -25 7 -8 8 -13 1 -13 -15 0 -22 26 -9
39 6 6 13 11 16 11 3 0 0 -5 -7 -12z m-6897 -348 c3 -6 -1 -7 -9 -4 -18 7 -21
14 -7 14 6 0 13 -4 16 -10z m-24 -293 c-10 -9 -11 -8 -5 6 3 10 9 15 12 12 3
-3 0 -11 -7 -18z m6989 -9 c0 -4 -4 -8 -9 -8 -6 0 -12 4 -15 8 -3 5 1 9 9 9 8
0 15 -4 15 -9z m-5 -47 c3 -5 2 -12 -3 -15 -5 -3 -9 1 -9 9 0 17 3 19 12 6z
m-6975 -76 c0 -5 -5 -3 -10 5 -5 8 -10 20 -10 25 0 6 5 3 10 -5 5 -8 10 -19
10 -25z m6990 -15 c0 -5 -2 -10 -4 -10 -3 0 -8 5 -11 10 -3 6 -1 10 4 10 6 0
11 -4 11 -10z m-3590 -42 c0 -6 -3 -8 -7 -5 -3 4 -13 1 -22 -6 -14 -11 -14
-10 -2 6 15 20 31 22 31 5z m164 4 c3 -5 -1 -9 -9 -9 -8 0 -12 4 -9 9 3 4 7 8
9 8 2 0 6 -4 9 -8z m411 -214 c5 4 5 1 1 -6 -5 -9 -12 -9 -27 -2 -10 6 -19 13
-19 16 0 2 8 0 19 -5 10 -6 22 -7 26 -3z m-1145 -52 c0 -2 -7 -7 -16 -10 -8
-3 -12 -2 -9 4 6 10 25 14 25 6z m-2825 -116 c3 -5 1 -10 -4 -10 -6 0 -11 5
-11 10 0 6 2 10 4 10 3 0 8 -4 11 -10z m4326 -15 c9 2 16 -3 16 -11 0 -9 -4
-11 -12 -4 -7 5 -14 8 -17 5 -3 -3 -11 3 -19 12 -12 16 -12 17 1 7 8 -6 22
-10 31 -9z m-1811 -45 c0 -5 -2 -10 -4 -10 -3 0 -8 5 -11 10 -3 6 -1 10 4 10
6 0 11 -4 11 -10z m-2490 -80 c0 -5 -5 -10 -11 -10 -5 0 -7 5 -4 10 3 6 8 10
11 10 2 0 4 -4 4 -10z m4650 -52 c0 -6 -6 -5 -15 2 -8 7 -15 14 -15 16 0 2 7
1 15 -2 8 -4 15 -11 15 -16z m-4640 -8 c0 -5 -2 -10 -4 -10 -3 0 -8 5 -11 10
-3 6 -1 10 4 10 6 0 11 -4 11 -10z m5 -60 c3 -6 -1 -7 -9 -4 -18 7 -21 14 -7
14 6 0 13 -4 16 -10z m2050 -9 c3 -5 0 -13 -6 -17 -7 -4 -9 -3 -5 4 3 5 0 13
-6 15 -9 4 -10 6 -1 6 6 1 14 -3 18 -8z m-35 -25 c0 -3 -4 -8 -10 -11 -5 -3
-10 -1 -10 4 0 6 5 11 10 11 6 0 10 -2 10 -4z m-140 -61 c0 -2 -6 -8 -13 -14
-10 -8 -14 -7 -14 2 0 8 6 14 14 14 7 0 13 -1 13 -2z m3180 -17 c0 -6 -6 -5
-15 2 -8 7 -15 14 -15 16 0 2 7 1 15 -2 8 -4 15 -11 15 -16z m200 -62 c0 -2
-7 -7 -16 -10 -8 -3 -12 -2 -9 4 6 10 25 14 25 6z m1631 -59 c-6 -8 -7 -18 -3
-22 4 -5 2 -5 -5 -1 -14 8 -6 36 9 36 7 0 6 -5 -1 -13z m-1520 -14 c13 -17 13
-17 -6 -3 -11 8 -22 16 -24 17 -2 2 0 3 6 3 6 0 17 -8 24 -17z m-3873 -25 c-2
-6 -12 -12 -21 -14 -9 -1 -15 2 -11 7 3 5 10 7 15 4 5 -4 9 -1 9 4 0 6 3 11 6
11 3 0 4 -5 2 -12z m4102 -68 c0 -5 -2 -10 -4 -10 -3 0 -8 5 -11 10 -3 6 -1
10 4 10 6 0 11 -4 11 -10z m132 -52 c-7 -7 -12 -8 -12 -2 0 14 12 26 19 19 2
-3 -1 -11 -7 -17z m-4567 -7 c3 -5 1 -12 -4 -15 -5 -3 -11 1 -15 9 -6 16 9 21
19 6z m5535 -101 c0 -5 -5 -10 -11 -10 -5 0 -7 5 -4 10 3 6 8 10 11 10 2 0 4
-4 4 -10z m-36 -16 c3 -8 2 -12 -4 -9 -6 3 -10 10 -10 16 0 14 7 11 14 -7z
m-402 -31 c-6 -3 -9 -10 -5 -16 4 -7 -1 -6 -10 2 -21 17 -21 17 6 18 12 0 16
-1 9 -4z"/>
<path d="M5215 10440 c-3 -5 -1 -10 4 -10 6 0 11 5 11 10 0 6 -2 10 -4 10 -3
0 -8 -4 -11 -10z"/>
<path d="M5134 10374 c-18 -14 -18 -14 6 -3 31 14 36 19 24 19 -6 0 -19 -7
-30 -16z"/>
<path d="M5660 10251 c0 -6 4 -13 10 -16 6 -3 7 1 4 9 -7 18 -14 21 -14 7z"/>
<path d="M4955 10220 c-3 -5 -1 -10 4 -10 6 0 11 5 11 10 0 6 -2 10 -4 10 -3
0 -8 -4 -11 -10z"/>
<path d="M6210 9605 c0 -8 4 -15 10 -15 5 0 7 7 4 15 -4 8 -8 15 -10 15 -2 0
-4 -7 -4 -15z"/>
<path d="M4485 9589 c-4 -6 -5 -12 -2 -15 2 -3 7 2 10 11 7 17 1 20 -8 4z"/>
<path d="M4390 9440 c0 -5 5 -10 11 -10 5 0 7 5 4 10 -3 6 -8 10 -11 10 -2 0
-4 -4 -4 -10z"/>
<path d="M6371 9394 c0 -11 3 -14 6 -6 3 7 2 16 -1 19 -3 4 -6 -2 -5 -13z"/>
<path d="M6384 9352 c0 -10 8 -18 18 -18 16 0 16 2 1 18 -9 10 -17 18 -17 18
-1 0 -2 -8 -2 -18z"/>
<path d="M6505 9140 c3 -5 11 -10 16 -10 6 0 7 5 4 10 -3 6 -11 10 -16 10 -6
0 -7 -4 -4 -10z"/>
<path d="M4205 9120 c-3 -6 1 -7 9 -4 18 7 21 14 7 14 -6 0 -13 -4 -16 -10z"/>
<path d="M3847 8483 c-4 -3 -7 -11 -7 -17 0 -6 5 -5 12 2 6 6 9 14 7 17 -3 3
-9 2 -12 -2z"/>
<path d="M6910 8460 c0 -5 5 -10 11 -10 5 0 7 5 4 10 -3 6 -8 10 -11 10 -2 0
-4 -4 -4 -10z"/>
<path d="M7221 7914 c0 -11 3 -14 6 -6 3 7 2 16 -1 19 -3 4 -6 -2 -5 -13z"/>
<path d="M2955 7600 c-3 -5 -5 -10 -3 -11 27 -6 39 -5 49 7 8 10 8 14 0 14 -6
0 -11 -5 -11 -11 0 -8 -4 -8 -14 0 -10 8 -16 9 -21 1z"/>
<path d="M7575 7600 c-3 -5 -1 -10 4 -10 6 0 11 5 11 10 0 6 -2 10 -4 10 -3 0
-8 -4 -11 -10z"/>
<path d="M2838 7583 c6 -2 9 -10 6 -15 -4 -7 -2 -8 5 -4 13 9 5 26 -12 25 -9
0 -8 -2 1 -6z"/>
<path d="M7726 7578 c3 -5 10 -6 15 -3 13 9 11 12 -6 12 -8 0 -12 -4 -9 -9z"/>
<path d="M2735 7560 c3 -5 8 -10 11 -10 2 0 4 5 4 10 0 6 -5 10 -11 10 -5 0
-7 -4 -4 -10z"/>
<path d="M8261 7513 c-1 -17 16 -25 25 -12 4 7 3 9 -4 5 -5 -3 -13 0 -15 6 -4
9 -6 10 -6 1z"/>
<path d="M1990 7419 c0 -5 5 -7 10 -4 6 3 10 8 10 11 0 2 -4 4 -10 4 -5 0 -10
-5 -10 -11z"/>
<path d="M9331 7314 c0 -11 3 -14 6 -6 3 7 2 16 -1 19 -3 4 -6 -2 -5 -13z"/>
<path d="M9466 7278 c3 -5 10 -6 15 -3 13 9 11 12 -6 12 -8 0 -12 -4 -9 -9z"/>
<path d="M664 7082 c4 -3 14 -7 22 -8 9 -1 13 0 10 4 -4 3 -14 7 -22 8 -9 1
-13 0 -10 -4z"/>
<path d="M10120 7070 c-8 -5 -10 -10 -5 -10 6 0 17 5 25 10 8 5 11 10 5 10 -5
0 -17 -5 -25 -10z"/>
<path d="M88 6601 c-15 -18 -15 -20 0 -26 9 -3 13 -3 10 1 -4 4 -3 15 3 25 13
24 8 24 -13 0z"/>
<path d="M10735 6420 c3 -5 8 -10 11 -10 2 0 4 5 4 10 0 6 -5 10 -11 10 -5 0
-7 -4 -4 -10z"/>
<path d="M10675 6300 c3 -5 8 -10 11 -10 2 0 4 5 4 10 0 6 -5 10 -11 10 -5 0
-7 -4 -4 -10z"/>
<path d="M263 6007 c0 -8 6 -14 14 -14 9 0 10 4 2 14 -6 7 -12 13 -14 13 -1 0
-2 -6 -2 -13z"/>
<path d="M10294 5778 c-13 -16 -14 -19 -2 -10 9 7 18 9 20 5 3 -4 3 -3 2 4 -2
6 2 14 9 17 8 3 8 5 1 5 -6 1 -19 -9 -30 -21z"/>
<path d="M610 5600 c0 -5 5 -10 11 -10 5 0 7 5 4 10 -3 6 -8 10 -11 10 -2 0
-4 -4 -4 -10z"/>
<path d="M10036 5441 c-13 -14 -14 -21 -5 -27 7 -4 10 -3 5 4 -3 6 4 18 16 26
12 9 18 16 12 16 -6 0 -19 -9 -28 -19z"/>
<path d="M9674 5025 c-9 -14 -15 -28 -12 -30 2 -2 12 9 22 25 21 36 13 40 -10
5z"/>
<path d="M9520 4865 c-7 -9 -8 -15 -2 -15 5 0 12 7 16 15 3 8 4 15 2 15 -2 0
-9 -7 -16 -15z"/>
<path d="M1370 4780 c13 -11 25 -20 28 -20 3 0 -3 9 -13 20 -10 11 -23 20 -28
20 -6 0 0 -9 13 -20z"/>
<path d="M1596 4528 c3 -5 10 -6 15 -3 13 9 11 12 -6 12 -8 0 -12 -4 -9 -9z"/>
<path d="M1907 4226 c-4 -10 -1 -13 8 -9 8 3 12 9 9 14 -7 12 -11 11 -17 -5z"/>
<path d="M2016 4119 c3 -5 11 -9 17 -9 7 0 18 -9 25 -20 7 -11 20 -20 30 -19
14 0 13 2 -4 9 -12 4 -24 15 -27 23 -3 8 -15 17 -26 20 -12 3 -19 1 -15 -4z"/>
<path d="M8664 4026 c1 -8 5 -18 8 -22 4 -3 5 1 4 10 -1 8 -5 18 -8 22 -4 3
-5 -1 -4 -10z"/>
<path d="M2165 3990 c-16 -7 -17 -9 -3 -9 9 -1 20 4 23 9 7 11 7 11 -20 0z"/>
<path d="M2197 3913 c-10 -9 -9 -23 1 -23 5 0 9 7 9 15 0 17 -1 18 -10 8z"/>
<path d="M8576 3907 c3 -10 9 -15 12 -12 3 3 0 11 -7 18 -10 9 -11 8 -5 -6z"/>
<path d="M8565 3840 c4 -6 11 -8 16 -5 14 9 11 15 -7 15 -8 0 -12 -5 -9 -10z"/>
<path d="M2190 3799 c0 -5 5 -7 10 -4 6 3 10 8 10 11 0 2 -4 4 -10 4 -5 0 -10
-5 -10 -11z"/>
<path d="M8690 3396 c0 -8 4 -17 9 -20 5 -4 7 3 4 14 -6 23 -13 26 -13 6z"/>
<path d="M1995 2940 c-3 -5 -1 -10 4 -10 6 0 11 5 11 10 0 6 -2 10 -4 10 -3 0
-8 -4 -11 -10z"/>
<path d="M1997 2865 c3 -8 9 -12 14 -9 12 7 11 11 -5 17 -10 4 -13 1 -9 -8z"/>
<path d="M8790 2640 c0 -6 4 -9 9 -6 5 4 12 1 14 -4 3 -6 4 -5 3 2 -3 15 -26
23 -26 8z"/>
<path d="M8830 2281 c0 -6 4 -12 8 -15 5 -3 9 1 9 9 0 8 -4 15 -9 15 -4 0 -8
-4 -8 -9z"/>
<path d="M5370 1600 c0 -5 5 -10 10 -10 6 0 10 5 10 10 0 6 -4 10 -10 10 -5 0
-10 -4 -10 -10z"/>
<path d="M5203 1553 c-15 -5 -17 -23 -4 -23 5 0 11 7 15 15 3 8 4 15 3 14 -1
0 -8 -3 -14 -6z"/>
<path d="M5490 1540 c0 -5 5 -10 11 -10 5 0 7 5 4 10 -3 6 -8 10 -11 10 -2 0
-4 -4 -4 -10z"/>
<path d="M1885 1420 c3 -5 8 -10 11 -10 2 0 4 5 4 10 0 6 -5 10 -11 10 -5 0
-7 -4 -4 -10z"/>
<path d="M5976 1302 c-3 -4 4 -9 15 -9 23 -2 25 3 4 10 -8 4 -16 3 -19 -1z"/>
<path d="M8886 1198 c3 -5 10 -6 15 -3 13 9 11 12 -6 12 -8 0 -12 -4 -9 -9z"/>
<path d="M6290 1160 c0 -5 5 -10 11 -10 5 0 7 5 4 10 -3 6 -8 10 -11 10 -2 0
-4 -4 -4 -10z"/>
<path d="M6450 1091 c0 -5 7 -15 17 -22 15 -13 15 -12 4 9 -12 23 -21 28 -21
13z"/>
<path d="M4066 971 c-4 -5 -2 -12 3 -15 5 -4 12 -2 15 3 4 5 2 12 -3 15 -5 4
-12 2 -15 -3z"/>
<path d="M3882 883 c-7 -2 -17 -14 -23 -26 -9 -19 -8 -20 3 -7 8 8 20 21 28
28 15 13 13 14 -8 5z"/>
<path d="M7115 780 c-2 -3 5 -6 15 -7 11 -1 22 2 24 5 3 4 -4 8 -15 8 -11 0
-22 -3 -24 -6z"/>
<path d="M1985 720 c-3 -5 -1 -10 4 -10 6 0 11 5 11 10 0 6 -2 10 -4 10 -3 0
-8 -4 -11 -10z"/>
<path d="M7617 569 c7 -7 15 -10 18 -7 3 3 -2 9 -12 12 -14 6 -15 5 -6 -5z"/>
<path d="M7755 520 c3 -5 8 -10 11 -10 2 0 4 5 4 10 0 6 -5 10 -11 10 -5 0 -7
-4 -4 -10z"/>
<path d="M2861 466 c-9 -11 -9 -16 0 -22 7 -4 9 -3 5 4 -3 6 2 12 11 14 12 2
14 6 7 11 -7 4 -17 0 -23 -7z"/>
<path d="M2166 453 c-6 -14 -5 -15 5 -6 7 7 10 15 7 18 -3 3 -9 -2 -12 -12z"/>
<path d="M7956 452 c-3 -5 1 -9 9 -9 8 0 12 4 9 9 -3 4 -7 8 -9 8 -2 0 -6 -4
-9 -8z"/>
<path d="M2310 388 c0 -4 4 -8 9 -8 6 0 12 4 15 8 3 5 -1 9 -9 9 -8 0 -15 -4
-15 -9z"/>
<path d="M8457 393 c-11 -11 -8 -20 7 -20 8 0 12 6 9 14 -6 15 -7 15 -16 6z"/>
</g>
</svg>
