<svg width="1500" height="500" viewBox="0 0 1500 500" fill="none" xmlns="http://www.w3.org/2000/svg">
<path d="M64.16 365V152.456H117.296C150.128 152.456 175.076 161.528 192.14 179.672C209.204 197.816 217.736 223.844 217.736 257.756C217.736 274.604 215.576 289.724 211.256 303.116C206.936 316.292 200.564 327.524 192.14 336.812C183.716 345.884 173.348 352.904 161.036 357.872C148.724 362.624 134.576 365 118.592 365H64.16ZM91.052 342.968H115.352C140.192 342.968 158.768 335.516 171.08 320.612C183.608 305.708 189.872 284.756 189.872 257.756C189.872 230.756 183.608 210.128 171.08 195.872C158.768 181.616 140.192 174.488 115.352 174.488H91.052V342.968ZM296.944 246.092L286.9 278.492H350.728L340.684 246.092C336.796 234.212 333.124 222.44 329.668 210.776C326.212 198.896 322.756 186.8 319.3 174.488H318.004C314.764 186.8 311.416 198.896 307.96 210.776C304.504 222.44 300.832 234.212 296.944 246.092ZM232.144 365L304.072 152.456H334.528L406.456 365H377.62L357.532 300.2H280.096L259.684 365H232.144ZM436.57 365V152.456H502.99C513.79 152.456 523.726 153.536 532.798 155.696C542.086 157.64 549.97 160.988 556.45 165.74C563.146 170.492 568.33 176.648 572.002 184.208C575.674 191.768 577.51 201.056 577.51 212.072C577.51 228.704 573.19 241.988 564.55 251.924C555.91 261.86 544.246 268.664 529.558 272.336L583.666 365H553.21L502.018 275.252H463.462V365H436.57ZM463.462 253.22H499.102C515.734 253.22 528.478 249.872 537.334 243.176C546.19 236.264 550.618 225.896 550.618 212.072C550.618 198.032 546.19 188.204 537.334 182.588C528.478 176.972 515.734 174.164 499.102 174.164H463.462V253.22ZM621.035 365V152.456H647.927V259.052H648.899L737.351 152.456H767.807L701.387 233.456L778.175 365H748.043L684.539 254.516L647.927 297.608V365H621.035ZM864.784 368.888C849.88 368.888 836.056 366.08 823.312 360.464C810.568 354.848 799.552 347.18 790.264 337.46L806.464 318.668C814.024 326.66 822.88 333.14 833.032 338.108C843.4 342.86 854.092 345.236 865.108 345.236C879.148 345.236 890.056 342.104 897.832 335.84C905.608 329.36 909.496 320.936 909.496 310.568C909.496 305.168 908.524 300.632 906.58 296.96C904.852 293.072 902.368 289.832 899.128 287.24C896.104 284.432 892.432 281.948 888.112 279.788C883.792 277.628 879.148 275.36 874.18 272.984L843.724 259.7C838.756 257.54 833.68 254.948 828.496 251.924C823.312 248.9 818.668 245.228 814.564 240.908C810.46 236.588 807.112 231.512 804.52 225.68C801.928 219.632 800.632 212.72 800.632 204.944C800.632 196.952 802.252 189.5 805.492 182.588C808.948 175.676 813.592 169.736 819.424 164.768C825.472 159.584 832.492 155.588 840.484 152.78C848.692 149.972 857.656 148.568 867.376 148.568C880.12 148.568 891.892 151.052 902.692 156.02C913.492 160.772 922.672 167.036 930.232 174.812L915.652 192.308C909.172 186.044 901.936 181.184 893.944 177.728C886.168 174.056 877.312 172.22 867.376 172.22C855.496 172.22 845.884 175.028 838.54 180.644C831.412 186.044 827.848 193.604 827.848 203.324C827.848 208.508 828.82 212.936 830.764 216.608C832.924 220.064 835.732 223.196 839.188 226.004C842.644 228.596 846.424 230.972 850.528 233.132C854.632 235.076 858.844 236.912 863.164 238.64L893.296 251.6C899.344 254.192 905.068 257.216 910.468 260.672C915.868 263.912 920.512 267.8 924.4 272.336C928.288 276.656 931.312 281.84 933.472 287.888C935.848 293.72 937.036 300.524 937.036 308.3C937.036 316.724 935.308 324.608 931.852 331.952C928.612 339.296 923.86 345.776 917.596 351.392C911.332 356.792 903.772 361.112 894.916 364.352C886.06 367.376 876.016 368.888 864.784 368.888ZM1016.63 365V175.136H952.474V152.456H1107.99V175.136H1043.84V365H1016.63ZM1169.91 246.092L1159.86 278.492H1223.69L1213.65 246.092C1209.76 234.212 1206.09 222.44 1202.63 210.776C1199.18 198.896 1195.72 186.8 1192.26 174.488H1190.97C1187.73 186.8 1184.38 198.896 1180.92 210.776C1177.47 222.44 1173.8 234.212 1169.91 246.092ZM1105.11 365L1177.04 152.456H1207.49L1279.42 365H1250.58L1230.5 300.2H1153.06L1132.65 365H1105.11ZM1309.54 365V152.456H1375.96C1386.76 152.456 1396.69 153.536 1405.76 155.696C1415.05 157.64 1422.94 160.988 1429.42 165.74C1436.11 170.492 1441.3 176.648 1444.97 184.208C1448.64 191.768 1450.48 201.056 1450.48 212.072C1450.48 228.704 1446.16 241.988 1437.52 251.924C1428.88 261.86 1417.21 268.664 1402.52 272.336L1456.63 365H1426.18L1374.98 275.252H1336.43V365H1309.54ZM1336.43 253.22H1372.07C1388.7 253.22 1401.44 249.872 1410.3 243.176C1419.16 236.264 1423.58 225.896 1423.58 212.072C1423.58 198.032 1419.16 188.204 1410.3 182.588C1401.44 176.972 1388.7 174.164 1372.07 174.164H1336.43V253.22Z" fill="black"/>
</svg>
