<svg width="1393" height="221" viewBox="0 0 1393 221" fill="none" xmlns="http://www.w3.org/2000/svg">
<path d="M0.160001 217V4.45599H53.296C86.128 4.45599 111.076 13.528 128.14 31.672C145.204 49.816 153.736 75.844 153.736 109.756C153.736 126.604 151.576 141.724 147.256 155.116C142.936 168.292 136.564 179.524 128.14 188.812C119.716 197.884 109.348 204.904 97.036 209.872C84.724 214.624 70.576 217 54.592 217H0.160001ZM27.052 194.968H51.352C76.192 194.968 94.768 187.516 107.08 172.612C119.608 157.708 125.872 136.756 125.872 109.756C125.872 82.756 119.608 62.128 107.08 47.872C94.768 33.616 76.192 26.488 51.352 26.488H27.052V194.968ZM232.944 98.092L222.9 130.492H286.728L276.684 98.092C272.796 86.212 269.124 74.44 265.668 62.776C262.212 50.896 258.756 38.8 255.3 26.488H254.004C250.764 38.8 247.416 50.896 243.96 62.776C240.504 74.44 236.832 86.212 232.944 98.092ZM168.144 217L240.072 4.45599H270.528L342.456 217H313.62L293.532 152.2H216.096L195.684 217H168.144ZM372.57 217V4.45599H438.99C449.79 4.45599 459.726 5.53599 468.798 7.69599C478.086 9.63999 485.97 12.988 492.45 17.74C499.146 22.492 504.33 28.648 508.002 36.208C511.674 43.768 513.51 53.056 513.51 64.072C513.51 80.704 509.19 93.988 500.55 103.924C491.91 113.86 480.246 120.664 465.558 124.336L519.666 217H489.21L438.018 127.252H399.462V217H372.57ZM399.462 105.22H435.102C451.734 105.22 464.478 101.872 473.334 95.176C482.19 88.264 486.618 77.896 486.618 64.072C486.618 50.032 482.19 40.204 473.334 34.588C464.478 28.972 451.734 26.164 435.102 26.164H399.462V105.22ZM557.035 217V4.45599H583.927V111.052H584.899L673.351 4.45599H703.807L637.387 85.456L714.175 217H684.043L620.539 106.516L583.927 149.608V217H557.035ZM800.784 220.888C785.88 220.888 772.056 218.08 759.312 212.464C746.568 206.848 735.552 199.18 726.264 189.46L742.464 170.668C750.024 178.66 758.88 185.14 769.032 190.108C779.4 194.86 790.092 197.236 801.108 197.236C815.148 197.236 826.056 194.104 833.832 187.84C841.608 181.36 845.496 172.936 845.496 162.568C845.496 157.168 844.524 152.632 842.58 148.96C840.852 145.072 838.368 141.832 835.128 139.24C832.104 136.432 828.432 133.948 824.112 131.788C819.792 129.628 815.148 127.36 810.18 124.984L779.724 111.7C774.756 109.54 769.68 106.948 764.496 103.924C759.312 100.9 754.668 97.228 750.564 92.908C746.46 88.588 743.112 83.512 740.52 77.68C737.928 71.632 736.632 64.72 736.632 56.944C736.632 48.952 738.252 41.5 741.492 34.588C744.948 27.676 749.592 21.736 755.424 16.768C761.472 11.584 768.492 7.58799 776.484 4.77999C784.692 1.97199 793.656 0.567986 803.376 0.567986C816.12 0.567986 827.892 3.05199 838.692 8.01999C849.492 12.772 858.672 19.036 866.232 26.812L851.652 44.308C845.172 38.044 837.936 33.184 829.944 29.728C822.168 26.056 813.312 24.22 803.376 24.22C791.496 24.22 781.884 27.028 774.54 32.644C767.412 38.044 763.848 45.604 763.848 55.324C763.848 60.508 764.82 64.936 766.764 68.608C768.924 72.064 771.732 75.196 775.188 78.004C778.644 80.596 782.424 82.972 786.528 85.132C790.632 87.076 794.844 88.912 799.164 90.64L829.296 103.6C835.344 106.192 841.068 109.216 846.468 112.672C851.868 115.912 856.512 119.8 860.4 124.336C864.288 128.656 867.312 133.84 869.472 139.888C871.848 145.72 873.036 152.524 873.036 160.3C873.036 168.724 871.308 176.608 867.852 183.952C864.612 191.296 859.86 197.776 853.596 203.392C847.332 208.792 839.772 213.112 830.916 216.352C822.06 219.376 812.016 220.888 800.784 220.888ZM952.626 217V27.136H888.474V4.45599H1043.99V27.136H979.842V217H952.626ZM1105.91 98.092L1095.86 130.492H1159.69L1149.65 98.092C1145.76 86.212 1142.09 74.44 1138.63 62.776C1135.18 50.896 1131.72 38.8 1128.26 26.488H1126.97C1123.73 38.8 1120.38 50.896 1116.92 62.776C1113.47 74.44 1109.8 86.212 1105.91 98.092ZM1041.11 217L1113.04 4.45599H1143.49L1215.42 217H1186.58L1166.5 152.2H1089.06L1068.65 217H1041.11ZM1245.54 217V4.45599H1311.96C1322.76 4.45599 1332.69 5.53599 1341.76 7.69599C1351.05 9.63999 1358.94 12.988 1365.42 17.74C1372.11 22.492 1377.3 28.648 1380.97 36.208C1384.64 43.768 1386.48 53.056 1386.48 64.072C1386.48 80.704 1382.16 93.988 1373.52 103.924C1364.88 113.86 1353.21 120.664 1338.52 124.336L1392.63 217H1362.18L1310.98 127.252H1272.43V217H1245.54ZM1272.43 105.22H1308.07C1324.7 105.22 1337.44 101.872 1346.3 95.176C1355.16 88.264 1359.58 77.896 1359.58 64.072C1359.58 50.032 1355.16 40.204 1346.3 34.588C1337.44 28.972 1324.7 26.164 1308.07 26.164H1272.43V105.22Z" fill="white"/>
</svg>
