<svg width="84" height="72" viewBox="0 0 84 72" fill="none" xmlns="http://www.w3.org/2000/svg">
<path d="M81.5391 56.4844C13.3409 56.4844 16.3818 56.4953 16.3775 56.4649C15.6301 51.3345 15.6601 51.6627 15.7088 51.6565C48.4344 51.5107 -29.8172 51.6656 76.0955 51.6656C80.5081 51.6656 83.8359 48.8001 83.8359 45V16.418C83.8359 13.6477 81.2068 11.3899 77.9748 11.385L57.6017 11.3549V6.89062C57.6017 4.4093 55.2466 2.39062 52.3517 2.39062H47.4344C44.5403 2.39062 42.186 4.40873 42.186 6.88922V11.3321L20.3313 11.2995L18.6931 3.56625C18.2556 1.49991 16.1595 0 13.7092 0H2.46094C1.10184 0 0 0.944437 0 2.10938C0 3.27431 1.10184 4.21875 2.46094 4.21875C14.3711 4.21875 13.8172 4.16264 13.8505 4.31986C16.5206 16.9244 14.8212 8.11505 21.9847 47.4096L15.6865 47.4377C12.729 47.4474 10.4267 49.6727 10.7958 52.2048L11.4934 56.9883C11.8023 59.1061 13.913 60.7032 16.403 60.7032H20.7703C17.6859 65.8365 22.0544 72 28.8204 72C35.5832 72 39.9563 65.8388 36.8704 60.7032H60.3094C57.2248 65.8365 61.5935 72 68.3594 72C75.1221 72 79.4952 65.8391 76.4093 60.7032H81.5391C82.8982 60.7032 84 59.7587 84 58.5938C84 57.4289 82.8982 56.4844 81.5391 56.4844ZM47.1081 6.88922C47.1081 6.73495 47.2546 6.60938 47.4346 6.60938H52.3518C52.5328 6.60938 52.68 6.73552 52.68 6.89062V22.5C52.68 23.6649 53.7818 24.6094 55.1409 24.6094H58.7956L51.1256 31.1877C50.445 31.7714 49.3429 31.7714 48.6623 31.1877L40.9922 24.6094H44.647C46.0061 24.6094 47.1079 23.6649 47.1079 22.5V6.88922H47.1081ZM42.1862 15.5509V20.3906H38.0782C34.7763 20.3906 33.115 23.821 35.451 25.8249L45.1812 34.1699C47.7855 36.4035 52.0022 36.4037 54.6069 34.1699L64.3369 25.8249C66.6714 23.8229 65.0145 20.3906 61.7098 20.3906H57.6018V15.5737L77.9664 15.6038C78.4891 15.6045 78.9141 15.9698 78.9141 16.418V45C78.9141 46.4635 77.7814 47.4469 76.0955 47.4469H26.9732L21.1527 15.5195L42.1862 15.5509ZM32.9492 64.2421C32.9492 66.1936 31.0969 67.7812 28.8202 67.7812C26.5435 67.7812 24.6914 66.1936 24.6914 64.2421C24.6914 62.2907 26.5437 60.703 28.8204 60.703C31.0971 60.703 32.9492 62.2908 32.9492 64.2421ZM72.4882 64.2421C72.4882 66.1936 70.6361 67.7812 68.3594 67.7812C66.0827 67.7812 64.2305 66.1936 64.2305 64.2421C64.2305 62.2907 66.0827 60.703 68.3594 60.703C70.6361 60.703 72.4882 62.2908 72.4882 64.2421Z" fill="white"/>
</svg>
