<svg id="Capa_3" data-name="Capa 3" xmlns="http://www.w3.org/2000/svg" viewBox="0 0 654.79 610.56"><defs><style>.cls-1{fill:#a14ace;}.cls-2,.cls-3,.cls-4{fill:none;stroke-miterlimit:10;}.cls-2,.cls-4{stroke:#000;}.cls-2{stroke-width:5px;}.cls-3{stroke:#fff;}.cls-3,.cls-4{stroke-width:3px;}.cls-5{fill:#fff;}</style></defs><path class="cls-1" d="M614.28,156.38c-1.13-.48-2.29.25-3.19.69a9.17,9.17,0,0,0-8.66-1.68c-20-5.59-40.09-11-59.84-17.35-2.87-.93-7.43-3-9-1.31-2-.73-6.71-3.24-8.73-3.93-17.3-5.94-30.49-7.42-48.18-12.08-16.32-4.3-29.24-8.16-45.62-12.22-6.17-1.77-5.19-2.86-7.74-3.82a17.15,17.15,0,0,0-6-1.08c-1.81-.08-3.92-1.89-5-1.06-2.35-.46-4.29-.84-6.26-1.37s-3.13-.63-4.63-1.94-2.69-1.16-4.29-2.26a13.9,13.9,0,0,0-18.3,2.65,2.22,2.22,0,0,0-.75-.13c-1.29,0-5.24,0-5.34,1a29,29,0,0,0-4.94,1.06c-22.27,5.37-39.63,10.9-61.9,16.28a10.46,10.46,0,0,0-4.38-.89,9.42,9.42,0,0,0-8.66,4.9,7.65,7.65,0,0,0-2.09-.28c-7.12,0-22.69,3.54-18.91,7.51-4.05-1,.25.47-3.83-.43-5.57-1.24-5,.16-9.35,3.57a10.36,10.36,0,0,0-6.95-.54l-66.81,16.12c-1.25-.56-1.08,1.83-2.75,1.83-4.22,0-6.49,1.55-10.29,2.18-9.89,4.65-15.2,7.71-8.12,10,.72.24,10.3,4.32,10.93,4.14a9.92,9.92,0,0,0,5.85,1.74c.24,0,.47,0,.7,0a11,11,0,0,0,4,1.15c8.37.8,16.66,2.05,24.89,3.63a7.4,7.4,0,0,0,3,1.83l51.23,17.21c3.4,1.14,6.75,4.38,8.23,2.11,4.81,1.51,8.25,3.9,13.05,5.41,33.48,10.47,64.62,16.8,98.57,25.57.62.16,4.88.27,5.46.34,2.35,4,6.76,2.51,11.41,1.78a225.35,225.35,0,0,0,24.53-5.26c3.46-1,6.45-2.52,7.47-5.08,6.76-1.69,12.71-3.73,19.64-4.6,11.6-1.44,22.78-2.92,34-6.3,3.63-1.09,5.75-2.37,6.69-5.16,1,.68,11.41-3.26,13-3.26,5.76,0-1.12-2.33-2.51-6.55l4.72,1.23a12.07,12.07,0,0,0,1.79.32c2.35,4,6.61,3.94,11.26,3.21,8.28-1.3,14.77-4.39,22.86-6.6,3.46-.95,7.65-.27,8.67-2.83a171.87,171.87,0,0,1,20.5-4c11.6-1.45,17.72-5.28,29-8.66,2.92-.88,9.94-.25,11.08-2.34.2,0,.4.11.59,0C627.73,165.49,630.58,163.18,614.28,156.38ZM293.36,135c.68-.17.63.39,1.18.06.88.88,2,1,3.26,1.51C296.1,136.11,295.06,135.41,293.36,135Zm187.81,50.45c-3.29,1-5.41-1-8.7-.3-1.65-2.36-5.1-1.22-8.56-2.21-25.33-7.23-37.21-9.36-55.09-15.5-17.3-5.94-34.91-10.95-52.59-15.61-18.76-4.94-31.88-9.39-50.7-14.08.56.09-4.6,0-4,0,.24,0,.47,0,.7,0,1.18.6,1.45-.47,2.9-.33,34.71,3.29,69,15.84,102.09,26.19,25.06,7.84,50.35,14.81,75.73,21.5A11.19,11.19,0,0,0,481.17,185.42Zm10.44,3.22a10,10,0,0,0-1.71-1.78l2.65.69A6.94,6.94,0,0,0,491.61,188.64Z" transform="translate(-78.71 -91.86)"/><path class="cls-1" d="M99.74,428.55c-1,.75-3.74,4-4.77,4.77-1.61,1.17-1.43,2.28-2.56,3.93a3.27,3.27,0,0,0-.41,2.51,9.34,9.34,0,0,0-4.07,8.06c-3.93.69-3.7,7.15.7,7.15a3.53,3.53,0,0,0,1.76-.45c2.8,3.61,8.85,7.19,14,4.36,1.21,1.64,1.78,1.3,4.2,2l172.85,47.84c10.74,3,23.32,11.78,34.7,10.94.56.92,6.07,1.72,7.48,1.72,2.26,0,3.11-3,3.17-4.76,8.17-4.56,10.31-17.19,14.91-24.39,15.17-23.75,30.59-47.36,45-71.58,1-1.61,2.67-2.19,2.7-3.83,4.46-.18,3.15-8.3-1.44-8.3a3.38,3.38,0,0,0-2.12.67,11.75,11.75,0,0,0-5.34-3.79c-29.22-10.22-59.56-16.4-89.65-23.44-31.92-7.47-63.74-15.45-95.13-24.92q-11.53-3.48-23-7.24c-4.81-1.58-9.11-4.46-14-3.94-.59-.73-1.51-.41-2.13-1.11a3.61,3.61,0,0,0-6.16,2.55,3.8,3.8,0,0,0,.72,2.11c-8.28,5-12.14,15.5-16,23.87-5.78,12.7-14.24,22.39-22.52,33.38-4.1,5.43-7.82,9.44-10.24,15.39" transform="translate(-78.71 -91.86)"/><path class="cls-1" d="M100.44,426.61" transform="translate(-78.71 -91.86)"/><path class="cls-1" d="M639.18,353.29a3.63,3.63,0,0,0-.5-1.82l-.56-.73a3.55,3.55,0,0,0-1.6-.93l-3.59-1.48a2.71,2.71,0,0,0-1.44-.06,2.62,2.62,0,0,0-1.34.43,2.58,2.58,0,0,0-1,.93c-.32.34-1.08,0-1.19.47,0,.24-3-.19-3,0-.7,0-.65.67-1.39.71-13.87.69-25.64,5.45-39.22,8.24-28.55,5.87-55.76,15.45-83.53,24a657.25,657.25,0,0,1-86.25,20.36c-3.63.6-5.84,2.57-6.85,5-3.35.82-6.4,4.6-3.13,5.53,1.14,3.7,5,8.95,9.13,9.86.24,2.27,3.17,4,4.61,5.66l31.86,37c10.52,12.23,20.47,26.3,32.36,37.19,2.36,2.17,3,4,5.49,4.94,0,1.83,2.89,3.31,5.25,3.31a3.28,3.28,0,0,0,3.26-2.26,3,3,0,0,0,.42-.16c5.25-.05,10.58-2,15.82-4.7a2.65,2.65,0,0,0,2.79-.51c1-.88,1.82.62,3,.08.87,1.19,2.68-.29,4.18-.76l16.17-5.08,25.36-5.45a9.19,9.19,0,0,0,2.69-1q6.74-1.81,13.39-3.91,9.5-3,18.79-6.57c1-.38,3.29-.75,3.4-1.75,7.39-1.36,13.11-3.18,20.14-4.83q46.83-11,92.76-25.38c2.63-.82,4.41-.45,5.75-2.73.5,1.13,1.9-.21,3.52-.21,4.64,0,4.65-7.22,0-7.22a3.61,3.61,0,0,0-1.64.37,9.09,9.09,0,0,0-3-7.56q-32.88-29.61-63.4-61.68c-5.83-6.15-9.55-12.67-16.31-16.28" transform="translate(-78.71 -91.86)"/><line class="cls-2" x1="72.16" y1="67.2" x2="72.16" y2="254.11"/><line class="cls-2" x1="318.45" y1="136.46" x2="318.45" y2="321.23"/><line class="cls-2" x1="554.52" y1="71.41" x2="555.94" y2="254.11"/><line class="cls-2" x1="72.16" y1="67.2" x2="318.45" y2="136.46"/><line class="cls-2" x1="309.53" y1="2.51" x2="555.82" y2="71.78"/><line class="cls-2" x1="71.6" y1="67.82" x2="309.85" y2="2.43"/><line class="cls-2" x1="318.45" y1="136.46" x2="553.42" y2="72.43"/><path class="cls-2" d="M269.56,127c18.44,3.54,34.54,9.58,52.66,13.61C386.64,158.76,449,178.89,513,195.51" transform="translate(-78.71 -91.86)"/><line class="cls-2" x1="72.16" y1="250.11" x2="318.45" y2="319.38"/><line class="cls-2" x1="318.45" y1="318.79" x2="555.82" y2="254.11"/><line class="cls-2" x1="316.39" y1="319.65" x2="245.47" y2="431.41"/><line class="cls-2" x1="72.16" y1="254.11" x2="2.24" y2="364.29"/><line class="cls-2" x1="2.64" y1="362.62" x2="247.2" y2="431.4"/><line class="cls-2" x1="318.45" y1="316.33" x2="412.59" y2="423.36"/><line class="cls-2" x1="410.35" y1="422.36" x2="652.7" y2="353.43"/><line class="cls-2" x1="555.94" y1="254.11" x2="652.7" y2="353.43"/><path class="cls-3" d="M140.15,154.38" transform="translate(-78.71 -91.86)"/><path class="cls-3" d="M399.73,81.83" transform="translate(-78.71 -91.86)"/><path d="M489.91,516.72a1.5,1.5,0,0,0,0-3,1.5,1.5,0,0,0,0,3Z" transform="translate(-78.71 -91.86)"/><path d="M81.17,456.74a1.5,1.5,0,0,0,0-3,1.5,1.5,0,0,0,0,3Z" transform="translate(-78.71 -91.86)"/><path d="M81.92,457.28a1.5,1.5,0,0,0,0-3,1.5,1.5,0,0,0,0,3Z" transform="translate(-78.71 -91.86)"/><path d="M82.36,455.08a1.5,1.5,0,0,0,0-3,1.5,1.5,0,0,0,0,3Z" transform="translate(-78.71 -91.86)"/><path d="M80.16,457a1.5,1.5,0,0,0,0-3,1.5,1.5,0,0,0,0,3Z" transform="translate(-78.71 -91.86)"/><path d="M153.19,159.41l-.19-.09a1.09,1.09,0,0,0-.55-.18,1.12,1.12,0,0,0-.6,0,1,1,0,0,0-.51.27,1.06,1.06,0,0,0-.39.42l-.15.35a1.55,1.55,0,0,0,0,.8l.15.36a1.47,1.47,0,0,0,.54.54l.18.09a1.16,1.16,0,0,0,.56.18,1.22,1.22,0,0,0,.6,0,1.15,1.15,0,0,0,.51-.27,1.13,1.13,0,0,0,.39-.42l.15-.36a1.51,1.51,0,0,0,0-.79l-.15-.36a1.55,1.55,0,0,0-.54-.54Z" transform="translate(-78.71 -91.86)"/><path d="M150.31,160.56a1.5,1.5,0,0,0,0-3,1.5,1.5,0,0,0,0,3Z" transform="translate(-78.71 -91.86)"/><path d="M388.27,94.86a1.5,1.5,0,0,0,0-3,1.5,1.5,0,0,0,0,3Z" transform="translate(-78.71 -91.86)"/><path d="M634.4,164.25a1.5,1.5,0,0,0,0-3,1.5,1.5,0,0,0,0,3Z" transform="translate(-78.71 -91.86)"/><path class="cls-4" d="M643.22,682.92c0,2.75-.73,5-1.61,5s-1.61-2.25-1.61-5V514.07c0-2.75.72-5,1.61-5s1.61,2.25,1.61,5Z" transform="translate(-78.71 -91.86)"/><path class="cls-4" d="M161.87,631.28c0,2.75-.47,5-1,5s-1-2.25-1-5V525.84c0-2.75.47-5,1-5s1,2.25,1,5Z" transform="translate(-78.71 -91.86)"/><path class="cls-4" d="M522.51,694.65c0,2.75-.58,5-1.29,5s-1.29-2.25-1.29-5V561.35c0-2.75.58-5,1.29-5s1.29,2.25,1.29,5Z" transform="translate(-78.71 -91.86)"/><path class="cls-4" d="M276.6,694.65c0,2.75-.58,5-1.29,5s-1.29-2.25-1.29-5V561.35c0-2.75.58-5,1.29-5s1.29,2.25,1.29,5Z" transform="translate(-78.71 -91.86)"/><path class="cls-4" d="M387.23,695.93c0,2.75-.73,5-1.61,5s-1.61-2.25-1.61-5V527.08c0-2.75.72-5,1.61-5s1.61,2.25,1.61,5Z" transform="translate(-78.71 -91.86)"/><path d="M512.73,192.92a3.75,3.75,0,0,0-3.14,0c-3.32,1.17-2.94,6.92,1.16,7,.36.11.65-1.06,1.09-1.06C516.2,198.81,516.57,193.7,512.73,192.92Z" transform="translate(-78.71 -91.86)"/><path class="cls-5" d="M634.63,156.05Z" transform="translate(-78.71 -91.86)"/><path class="cls-5" d="M635.87,161.14c-.16-.06-.34-.08,0,0Z" transform="translate(-78.71 -91.86)"/><path class="cls-5" d="M637.14,162.32c-.06-.15-.16-.28,0,0Z" transform="translate(-78.71 -91.86)"/><path d="M325.3,521.32a2.09,2.09,0,0,0-1-.24c-2.53,0-2.76,3.57-.68,4.22a2.08,2.08,0,0,0,1,.24C327.15,525.54,327.37,522,325.3,521.32Z" transform="translate(-78.71 -91.86)"/><path d="M151.47,343.66c-2.79,0-2.79,4.33,0,4.33S154.26,343.66,151.47,343.66Z" transform="translate(-78.71 -91.86)"/><path d="M731.08,442.75c-3.21,0-3.22,5,0,5S734.31,442.75,731.08,442.75Z" transform="translate(-78.71 -91.86)"/></svg>